<svg xmlns="http://www.w3.org/2000/svg" width="41.996" height="30.001" viewBox="0 0 41.996 30.001"><g transform="translate(22035.555 -8879.895)"><path d="M795.916,583.312a1.085,1.085,0,0,1-.186-.287c-.493-1.218-.985-2.436-1.46-3.661-.031-.081.065-.218.116-.322.108-.218.32-.428.324-.645.029-1.477.018-2.954.012-4.432a.678.678,0,0,0-.617-.751,12.3,12.3,0,0,0-1.88.166c-.258.044-.356.041-.454-.211-.49-1.267-1-2.528-1.5-3.788a.893.893,0,0,0-.862-.671c-1.43,0-2.86-.017-4.289-.021-.532,0-.868.288-.875.728s.344.729.866.73c1.188,0,2.377.007,3.565-.005a.385.385,0,0,1,.426.293q.745,1.9,1.521,3.782a.621.621,0,0,1-.027.578,2.983,2.983,0,0,0,1.719,4.225.652.652,0,0,1,.345.326c.569,1.386,1.113,2.783,1.683,4.169a2.862,2.862,0,0,0,.461.759,6.3,6.3,0,0,1,1.362,2.8,8.855,8.855,0,0,1,.1,1.106H763.223c0-.141,0-.254,0-.366a6.044,6.044,0,0,1,3.95-5.29,5.974,5.974,0,0,1,7.664,3.55.817.817,0,0,0,.83.594q4.05,0,8.1,0a.827.827,0,0,0,.846-.577,5.972,5.972,0,0,1,4.528-3.818.758.758,0,0,0,.7-.954c-.172-1.385-.341-2.77-.515-4.155q-.3-2.42-.614-4.84a.678.678,0,0,0-.6-.625.638.638,0,0,0-.734.333,1.333,1.333,0,0,0-.09.7q.473,3.934.982,7.862c.036.273-.015.375-.281.462a7.372,7.372,0,0,0-4.477,3.871.422.422,0,0,1-.452.266c-2.007-.008-4.014,0-6.022,0-.1,0-.2-.014-.318-.024,0-1.3.03-2.569-.007-3.836a5.235,5.235,0,0,0-5.285-5.144H769.22v-.414q0-4.553,0-9.106c0-.728-.25-.987-.97-.99-1.068,0-2.137,0-3.205,0q-4.224,0-8.448.005c-.59,0-.855.261-.856.847q-.011,5.107,0,10.214c0,.693.262.924.957.924q3.029,0,6.059,0c.156,0,.311.014.486.022,0,.472.013.91,0,1.347a.829.829,0,0,0,.579.88c.406.163.807.341,1.209.515.521.225,1.041.451,1.6.692a1.4,1.4,0,0,1-.165.1,7.523,7.523,0,0,0-4.728,7.615.768.768,0,0,0,.849.829c.215,0,.43,0,.641,0a6.015,6.015,0,0,0,12.029.025h8.973a6.023,6.023,0,0,0,5.494,5.948,5.687,5.687,0,0,0,3.872-1,5.982,5.982,0,0,0,2.653-4.969c.276,0,.517.01.758,0a.711.711,0,0,0,.715-.663,7.677,7.677,0,0,0-1.8-5.687m-2.7-5.654a1.467,1.467,0,0,1-1.494-1.466,1.5,1.5,0,0,1,1.494-1.514Zm-36.008-10.5h10.506v9H757.211Zm7.887,11.7c-.284-.118-.437-.25-.385-.576a4.339,4.339,0,0,0,.005-.624h.642c2.111,0,4.222-.024,6.332.019a3.7,3.7,0,0,1,3.543,3.61c.014.77,0,1.54,0,2.395-.265-.286-.473-.518-.689-.741a7.347,7.347,0,0,0-4.911-2.253,1.826,1.826,0,0,1-.561-.141c-1.327-.56-2.647-1.138-3.978-1.689m7.063,14.238a4.372,4.372,0,0,1-4.727.724,4.467,4.467,0,0,1-2.731-4.147h9.033a4.389,4.389,0,0,1-1.576,3.423m20.473.394a4.254,4.254,0,0,1-4.442.212,4.453,4.453,0,0,1-2.478-4.027h9.042a4.434,4.434,0,0,1-2.123,3.815" transform="translate(-22791.291 8314.221)" fill="#9f9f9f"/><path d="M824.554,609.134c-.172,0-.344.01-.517.01-.818,0-1.636-.014-2.454,0a.72.72,0,0,0,.045,1.44c.484.009.969,0,1.454,0v.009c.5,0,.991,0,1.487,0a.734.734,0,1,0-.015-1.463" transform="translate(-22851.932 8273.771)" fill="#9f9f9f"/></g></svg>