<svg xmlns="http://www.w3.org/2000/svg" width="30" height="30" viewBox="0 0 30 30"><g transform="translate(-185 -268)"><path d="M16,31A15,15,0,1,1,31,16,15,15,0,0,1,16,31Z" transform="translate(184 267)" fill="#e50019"/><path d="M21,17H11a1,1,0,0,1,0-2H21a1,1,0,0,1,0,2Z" transform="translate(184 267)" fill="#fff"/><path d="M21,12H11a1,1,0,0,1,0-2H21a1,1,0,0,1,0,2Z" transform="translate(184 267)" fill="#fff"/><path d="M21,22H11a1,1,0,0,1,0-2H21a1,1,0,0,1,0,2Z" transform="translate(184 267)" fill="#fff"/></g></svg>