<svg xmlns="http://www.w3.org/2000/svg" width="13.974" height="14" viewBox="0 0 13.974 14"><g transform="translate(666.952 67.534)"><path d="M-659.187-53.534h-6.18a1.263,1.263,0,0,0-.132-.012,1.6,1.6,0,0,1-1.406-1.291,3.042,3.042,0,0,1-.046-.571q0-3.9,0-7.806,0-1.271,0-2.543a1.69,1.69,0,0,1,.7-1.48,1.806,1.806,0,0,1,1.089-.3q2.816,0,5.632,0a4.047,4.047,0,0,1,.423.022,1.6,1.6,0,0,1,1.475,1.626q0,1.675,0,3.349c0,.241-.01.25-.257.25h-2.693a1.483,1.483,0,0,0-.259.015,1.74,1.74,0,0,0-1.456,1.826,1.716,1.716,0,0,0,1.745,1.662h2.707c.192,0,.213.021.213.212,0,1.144.013,2.288,0,3.431a1.559,1.559,0,0,1-.9,1.429A2.418,2.418,0,0,1-659.187-53.534Z" fill="#ff6a6a"/><path d="M-504.261,48.212h-1.872a.616.616,0,0,1-.484-.18.544.544,0,0,1-.137-.544.543.543,0,0,1,.41-.4,1.118,1.118,0,0,1,.285-.022h3.676c.243,0,.255-.012.255-.254q0-.649,0-1.3a1.506,1.506,0,0,1,.031-.326.555.555,0,0,1,.911-.307c.131.113.258.231.381.353q.954.95,1.9,1.9a.688.688,0,0,1,.245.54.708.708,0,0,1-.25.47l-1.807,1.808c-.148.148-.3.294-.457.431a.548.548,0,0,1-.559.121.544.544,0,0,1-.372-.435,1.511,1.511,0,0,1-.027-.313q0-.67,0-1.339c0-.181-.026-.206-.206-.206q-.963,0-1.927,0Z" transform="translate(-154.323 -108.174)" fill="#ff6a6a"/></g></svg>