<svg xmlns="http://www.w3.org/2000/svg" width="28" height="8" viewBox="0 0 28 8"><g transform="translate(-1116 -375)"><circle cx="4" cy="4" r="4" transform="translate(1116 375)" fill="#fff"/><path d="M4,1A3,3,0,1,0,7,4,3,3,0,0,0,4,1M4,0A4,4,0,1,1,0,4,4,4,0,0,1,4,0Z" transform="translate(1116 375)" fill="#9f9f9f"/><circle cx="4" cy="4" r="4" transform="translate(1126 375)" fill="#fff"/><path d="M4,1A3,3,0,1,0,7,4,3,3,0,0,0,4,1M4,0A4,4,0,1,1,0,4,4,4,0,0,1,4,0Z" transform="translate(1126 375)" fill="#9f9f9f"/><circle cx="4" cy="4" r="4" transform="translate(1136 375)" fill="#fff"/><path d="M4,1A3,3,0,1,0,7,4,3,3,0,0,0,4,1M4,0A4,4,0,1,1,0,4,4,4,0,0,1,4,0Z" transform="translate(1136 375)" fill="#9f9f9f"/></g></svg>