<svg xmlns="http://www.w3.org/2000/svg" width="42.996" height="31" viewBox="0 0 42.996 31"><g transform="translate(21542.5 -10091.5)"><g transform="translate(493.555 1212.104)"><path d="M-480.051-1142.1h0l-.158,0a6.058,6.058,0,0,1-3.976-1.717,6.225,6.225,0,0,1-1.872-4.294h-.4l-.245,0a.766.766,0,0,1-.85-.828,7.532,7.532,0,0,1,4.729-7.616.506.506,0,0,0,.088-.052l.076-.05-.254-.11-.167-.072-1.177-.51-.319-.138c-.291-.126-.591-.256-.891-.377a.826.826,0,0,1-.579-.88c.012-.3.009-.6.006-.912v-.005c0-.14,0-.283,0-.429l-.149-.009c-.117-.007-.226-.014-.336-.014q-2.295,0-4.59,0h-1.469c-.7,0-.955-.242-.957-.924-.005-3.279,0-6.62,0-10.214,0-.584.266-.845.856-.847,2.012,0,4.057,0,6.035,0h4.016q.8,0,1.6,0c.717,0,.971.262.971.99q0,2.957,0,5.915v3.6h2.206a5.138,5.138,0,0,1,2.994.906,5.1,5.1,0,0,1,2.29,4.237c.025.874.019,1.769.013,2.635,0,.393-.006.8-.006,1.2l.066.005.051,0c.07.007.136.013.2.013h3.184c1.138,0,2.013,0,2.838,0h.005a.419.419,0,0,0,.447-.266,7.4,7.4,0,0,1,4.477-3.871c.261-.084.319-.179.282-.462-.322-2.48-.643-5.052-.982-7.861a1.344,1.344,0,0,1,.09-.7.611.611,0,0,1,.576-.348.871.871,0,0,1,.158.015.678.678,0,0,1,.6.625q.1.792.2,1.583l.009.067,0,.029q.2,1.58.4,3.161c.111.883.222,1.782.329,2.65v.008q.092.748.185,1.5a.757.757,0,0,1-.7.953,6,6,0,0,0-4.528,3.818.824.824,0,0,1-.843.577h-8.1a.82.82,0,0,1-.83-.594,5.931,5.931,0,0,0-5.581-3.9,6.4,6.4,0,0,0-2.083.355,6.049,6.049,0,0,0-3.949,5.29c0,.075,0,.148,0,.233,0,.045,0,.088,0,.133h33.038c-.01-.125-.017-.249-.022-.368a4.547,4.547,0,0,0-.076-.738,6.332,6.332,0,0,0-1.362-2.8,2.826,2.826,0,0,1-.461-.759c-.288-.7-.575-1.417-.852-2.109l0-.008c-.255-.638-.545-1.362-.828-2.053a.657.657,0,0,0-.345-.326,3.052,3.052,0,0,1-1.851-1.735,3,3,0,0,1,.132-2.49.625.625,0,0,0,.027-.578c-.525-1.277-1.037-2.55-1.521-3.782a.38.38,0,0,0-.414-.293h-.011c-.5.005-1.051.007-1.72.007l-1.2,0h-.642a.941.941,0,0,1-.679-.247.659.659,0,0,1-.188-.483c.007-.442.35-.728.872-.728.7,0,1.405.006,2.09.01h.057c.7,0,1.426.009,2.146.01a.881.881,0,0,1,.862.671l0,.006c.47,1.168,1,2.492,1.5,3.782.067.174.134.232.266.232a1.182,1.182,0,0,0,.188-.022,12.431,12.431,0,0,1,1.88-.167h.009a.677.677,0,0,1,.608.751l0,.531c.005,1.278.011,2.6-.015,3.9a.877.877,0,0,1-.19.426,2.078,2.078,0,0,0-.134.219c-.011.022-.024.046-.037.07-.049.088-.1.188-.079.252.486,1.253.988,2.5,1.46,3.661a1.089,1.089,0,0,0,.186.287,7.624,7.624,0,0,1,1.8,5.687.713.713,0,0,1-.715.662c-.084,0-.174.006-.283.006l-.22,0-.255,0a6.007,6.007,0,0,1-2.653,4.969,5.657,5.657,0,0,1-3.273,1.031c-.2,0-.4-.01-.6-.029a6.086,6.086,0,0,1-3.758-1.769,6.151,6.151,0,0,1-1.737-4.179h-8.973a5.919,5.919,0,0,1-2,4.412A6.146,6.146,0,0,1-480.051-1142.1Zm16.488-6a4.449,4.449,0,0,0,2.478,4.027,4.393,4.393,0,0,0,2.043.526,4.465,4.465,0,0,0,2.4-.738,4.45,4.45,0,0,0,2.123-3.815Zm-21.01,0a4.463,4.463,0,0,0,2.731,4.147,4.306,4.306,0,0,0,1.8.394,4.483,4.483,0,0,0,2.93-1.118,4.419,4.419,0,0,0,1.576-3.424Zm-2.264-19.538h0v.008h1.487a.816.816,0,0,0,.589-.23.689.689,0,0,0,.193-.506.726.726,0,0,0-.785-.727h-.013l-.207,0h-.019c-.1,0-.2.005-.291.005l-.756,0-.756,0c-.365,0-.664,0-.941.009a.7.7,0,0,0-.5.208.739.739,0,0,0-.191.536.687.687,0,0,0,.739.7c.169,0,.348,0,.564,0h.888Z" transform="translate(-21542.014 10052)" fill="#ffd6db"/><path d="M-480.051-1141.6h0l-.173,0a6.564,6.564,0,0,1-4.309-1.858,6.694,6.694,0,0,1-1.991-4.151l-.184,0a1.253,1.253,0,0,1-1.339-1.306,8.032,8.032,0,0,1,4.2-7.711l-.6-.261-.32-.138c-.287-.125-.584-.253-.879-.372a1.319,1.319,0,0,1-.891-1.362c.011-.277.009-.556.006-.851q-2.289,0-4.578,0h-1.47a1.268,1.268,0,0,1-1.457-1.423c-.005-3.276,0-6.618,0-10.217a1.222,1.222,0,0,1,1.354-1.346c2.013,0,4.058,0,6.036,0h4.016q.8,0,1.6,0a1.3,1.3,0,0,1,1.469,1.49q0,2.958,0,5.915v3.1h1.706a5.629,5.629,0,0,1,3.28,1,5.578,5.578,0,0,1,2.5,4.633c.026.884.019,1.783.013,2.653,0,.237,0,.479,0,.722h3c1.138,0,2.014,0,2.84,0h.008a7.872,7.872,0,0,1,4.7-4.091c-.32-2.465-.639-5.02-.975-7.81a1.835,1.835,0,0,1,.135-.975,1.109,1.109,0,0,1,1.027-.633,1.375,1.375,0,0,1,.25.023,1.177,1.177,0,0,1,1,1.053q.1.793.2,1.584l.016.126q.2,1.566.4,3.132c.111.879.221,1.773.327,2.637l0,.024q.092.747.185,1.5a1.243,1.243,0,0,1-1.086,1.5,5.52,5.52,0,0,0-4.17,3.514,1.32,1.32,0,0,1-1.308.892h-8.1a1.314,1.314,0,0,1-1.3-.912,5.44,5.44,0,0,0-5.116-3.587,5.9,5.9,0,0,0-1.921.328,5.543,5.543,0,0,0-3.6,4.684h32a3.247,3.247,0,0,0-.057-.5,5.836,5.836,0,0,0-1.254-2.582,3.332,3.332,0,0,1-.543-.893c-.289-.7-.576-1.419-.853-2.112l-.006-.014c-.253-.633-.54-1.35-.821-2.035a.218.218,0,0,0-.058-.054,3.544,3.544,0,0,1-2.142-2.018,3.493,3.493,0,0,1,.149-2.9c.043-.086.038-.1.011-.164-.523-1.272-1.032-2.539-1.514-3.764-.5,0-1.034.007-1.69.007l-1.191,0h-.655a1.433,1.433,0,0,1-1.034-.4,1.164,1.164,0,0,1-.331-.841,1.259,1.259,0,0,1,1.372-1.221c.678,0,1.364.005,2.028.01h.121c.7,0,1.42.009,2.143.01a1.37,1.37,0,0,1,1.325.985l.007.018c.456,1.133.97,2.412,1.456,3.665a13.008,13.008,0,0,1,1.9-.165h.016a1.175,1.175,0,0,1,1.108,1.25l0,.53c.005,1.281.011,2.606-.015,3.913a1.3,1.3,0,0,1-.274.693,1.741,1.741,0,0,0-.1.165c-.011.023-.025.048-.038.073.466,1.2.945,2.385,1.4,3.5a.615.615,0,0,0,.1.15,8.1,8.1,0,0,1,1.916,6.042,1.214,1.214,0,0,1-1.189,1.132c-.093,0-.194.007-.315.007a6.414,6.414,0,0,1-2.836,4.876,6.148,6.148,0,0,1-3.557,1.12c-.213,0-.431-.01-.646-.031a6.586,6.586,0,0,1-4.066-1.915,6.565,6.565,0,0,1-1.848-4.031h-8.032a6.375,6.375,0,0,1-2.138,4.285A6.652,6.652,0,0,1-480.051-1141.6Zm-5.523-7.021.016.493a5.728,5.728,0,0,0,1.721,3.951,5.553,5.553,0,0,0,3.643,1.576l.143,0h0a5.64,5.64,0,0,0,3.692-1.449,5.43,5.43,0,0,0,1.83-4.049l.01-.49h9.945l.018.482a5.659,5.659,0,0,0,1.593,3.846,5.585,5.585,0,0,0,3.449,1.622c.185.018.37.027.552.027a5.165,5.165,0,0,0,2.989-.943,5.53,5.53,0,0,0,2.438-4.576l.018-.481h.482l.262,0h.213c.1,0,.182,0,.257-.006.055,0,.231-.025.241-.193a7.147,7.147,0,0,0-1.678-5.332,1.573,1.573,0,0,1-.269-.423c-.474-1.169-.976-2.414-1.463-3.67a.784.784,0,0,1,.107-.674c.01-.018.019-.035.027-.051a2.492,2.492,0,0,1,.165-.274,1.445,1.445,0,0,0,.107-.177c.025-1.29.019-2.6.014-3.871l0-.531c0-.164-.072-.253-.108-.253h0a11.922,11.922,0,0,0-1.8.159,1.6,1.6,0,0,1-.271.029.752.752,0,0,1-.733-.553c-.5-1.281-1.026-2.6-1.494-3.763l-.007-.018c-.144-.358-.273-.358-.4-.358-.726,0-1.449-.006-2.149-.01h-.121c-.663,0-1.348-.008-2.023-.01-.243,0-.369.079-.371.236a.158.158,0,0,0,.044.124.472.472,0,0,0,.323.1h.655l1.189,0c.668,0,1.213,0,1.715-.007h.016a.87.87,0,0,1,.88.61c.482,1.228.993,2.5,1.518,3.774a1.124,1.124,0,0,1-.042.992,2.507,2.507,0,0,0-.115,2.081,2.559,2.559,0,0,0,1.555,1.45,1.149,1.149,0,0,1,.639.606c.284.692.573,1.414.828,2.052l.005.013c.277.692.563,1.406.85,2.105a2.322,2.322,0,0,0,.378.624,6.827,6.827,0,0,1,1.47,3.02,5,5,0,0,1,.086.819c.006.115.012.235.021.351l.046.542h-34.082v-.5c0-.042,0-.081,0-.122v-.006c0-.089,0-.172,0-.262a6.565,6.565,0,0,1,4.286-5.739,6.9,6.9,0,0,1,2.246-.382,6.421,6.421,0,0,1,6.047,4.223c.092.236.187.276.364.276h8.1a.336.336,0,0,0,.378-.261,6.47,6.47,0,0,1,4.886-4.122c.32-.07.341-.13.307-.4q-.093-.749-.185-1.5l0-.023c-.106-.864-.216-1.757-.327-2.635q-.2-1.566-.4-3.131l-.016-.126q-.1-.791-.2-1.583c-.016-.123-.046-.169-.2-.2a.359.359,0,0,0-.065-.006c-.094,0-.114.042-.125.064a.864.864,0,0,0-.044.426c.338,2.807.659,5.377.981,7.855a.818.818,0,0,1-.624,1,6.911,6.911,0,0,0-4.184,3.618.907.907,0,0,1-.895.544h-.005c-.827,0-1.7,0-2.838,0h-3.184c-.088,0-.169-.008-.247-.015l-.112-.01-.458-.038v-.46c0-.405,0-.812.006-1.2.006-.861.012-1.752-.013-2.617a4.624,4.624,0,0,0-2.076-3.841,4.647,4.647,0,0,0-2.709-.817h-2.706v-4.1q0-2.958,0-5.915c0-.325-.061-.4-.074-.417s-.086-.072-.4-.073q-.8,0-1.6,0h-4.016c-1.978,0-4.022,0-6.033,0-.313,0-.356.043-.357.349-.008,3.6-.009,6.937,0,10.212,0,.3.06.357.062.359s.077.066.394.066h1.469q2.3,0,4.591,0c.123,0,.239.007.361.014h.018l.132.008.474.025v.475c0,.14,0,.277,0,.413v.015c0,.323.006.626-.007.938a.337.337,0,0,0,.265.4c.307.124.611.255.9.383l.317.137,1.178.51,1.29.559-.8.5-.065.042a.946.946,0,0,1-.181.1,7.045,7.045,0,0,0-4.415,7.13c.012.282.076.344.359.35.129,0,.255,0,.381,0h.241Zm26.531,5.579a4.888,4.888,0,0,1-2.274-.583,4.92,4.92,0,0,1-2.746-4.45l-.021-.52H-454l-.02.519a4.925,4.925,0,0,1-2.356,4.219A4.956,4.956,0,0,1-459.043-1143.047Zm-3.977-4.553a3.847,3.847,0,0,0,2.166,3.083,3.9,3.9,0,0,0,1.811.469,3.974,3.974,0,0,0,2.132-.661,3.891,3.891,0,0,0,1.846-2.892Zm-17.027,4.538a4.809,4.809,0,0,1-2.007-.44,5.141,5.141,0,0,1-2.192-1.821,5.338,5.338,0,0,1-.828-2.759l-.021-.521h10.059l0,.5a4.9,4.9,0,0,1-1.748,3.8A4.982,4.982,0,0,1-480.046-1143.061Zm-3.984-4.541a3.88,3.88,0,0,0,2.4,3.193,3.8,3.8,0,0,0,1.587.348,3.983,3.983,0,0,0,2.6-1,3.908,3.908,0,0,0,1.371-2.546Zm-1.948-19.528h-1.358v-.007h-.389c-.218,0-.4,0-.573,0a1.178,1.178,0,0,1-1.23-1.183,1.234,1.234,0,0,1,.329-.895,1.2,1.2,0,0,1,.854-.362c.283-.006.586-.009.952-.009l.758,0,.754,0c.087,0,.177,0,.277-.005h.02l.214,0h.013a1.228,1.228,0,0,1,1.29,1.218,1.194,1.194,0,0,1-.335.865,1.311,1.311,0,0,1-.944.381Zm-.358-1h.984a.33.33,0,0,0,.233-.079.189.189,0,0,0,.051-.148c0-.059,0-.237-.285-.237h-.008l-.2,0h-.019c-.1,0-.2.005-.3.005l-.759,0-.753,0c-.358,0-.654,0-.93.009a.194.194,0,0,0-.152.053.251.251,0,0,0-.053.178c0,.081.005.2.249.209.166,0,.342,0,.554,0l.888,0h.5Z" transform="translate(-21542.014 10052)" fill="rgba(0,0,0,0)"/></g><g transform="translate(493.555 1212.105)"><path d="M795.916,583.312a1.085,1.085,0,0,1-.186-.287c-.493-1.218-.985-2.436-1.46-3.661-.031-.081.065-.218.116-.322.108-.218.32-.428.324-.645.029-1.477.018-2.954.012-4.432a.678.678,0,0,0-.617-.751,12.3,12.3,0,0,0-1.88.166c-.258.044-.356.041-.454-.211-.49-1.267-1-2.528-1.5-3.788a.893.893,0,0,0-.862-.671c-1.43,0-2.86-.017-4.289-.021-.532,0-.868.288-.875.728s.344.729.866.73c1.188,0,2.377.007,3.565-.005a.385.385,0,0,1,.426.293q.745,1.9,1.521,3.782a.621.621,0,0,1-.027.578,2.983,2.983,0,0,0,1.719,4.225.652.652,0,0,1,.345.326c.569,1.386,1.113,2.783,1.683,4.169a2.862,2.862,0,0,0,.461.759,6.3,6.3,0,0,1,1.362,2.8,8.855,8.855,0,0,1,.1,1.106H763.223c0-.141,0-.254,0-.366a6.044,6.044,0,0,1,3.95-5.29,5.974,5.974,0,0,1,7.664,3.55.817.817,0,0,0,.83.594q4.05,0,8.1,0a.827.827,0,0,0,.846-.577,5.972,5.972,0,0,1,4.528-3.818.758.758,0,0,0,.7-.954c-.172-1.385-.341-2.77-.515-4.155q-.3-2.42-.614-4.84a.678.678,0,0,0-.6-.625.638.638,0,0,0-.734.333,1.333,1.333,0,0,0-.09.7q.473,3.934.982,7.862c.036.273-.015.375-.281.462a7.372,7.372,0,0,0-4.477,3.871.422.422,0,0,1-.452.266c-2.007-.008-4.014,0-6.022,0-.1,0-.2-.014-.318-.024,0-1.3.03-2.569-.007-3.836a5.235,5.235,0,0,0-5.285-5.144H769.22v-.414q0-4.553,0-9.106c0-.728-.25-.987-.97-.99-1.068,0-2.137,0-3.205,0q-4.224,0-8.448.005c-.59,0-.855.261-.856.847q-.011,5.107,0,10.214c0,.693.262.924.957.924q3.029,0,6.059,0c.156,0,.311.014.486.022,0,.472.013.91,0,1.347a.829.829,0,0,0,.579.88c.406.163.807.341,1.209.515.521.225,1.041.451,1.6.692a1.4,1.4,0,0,1-.165.1,7.523,7.523,0,0,0-4.728,7.615.768.768,0,0,0,.849.829c.215,0,.43,0,.641,0a6.015,6.015,0,0,0,12.029.025h8.973a6.023,6.023,0,0,0,5.494,5.948,5.687,5.687,0,0,0,3.872-1,5.982,5.982,0,0,0,2.653-4.969c.276,0,.517.01.758,0a.711.711,0,0,0,.715-.663,7.677,7.677,0,0,0-1.8-5.687m-2.7-5.654a1.467,1.467,0,0,1-1.494-1.466,1.5,1.5,0,0,1,1.494-1.514Zm-36.008-10.5h10.506v9H757.211Zm7.887,11.7c-.284-.118-.437-.25-.385-.576a4.339,4.339,0,0,0,.005-.624h.642c2.111,0,4.222-.024,6.332.019a3.7,3.7,0,0,1,3.543,3.61c.014.77,0,1.54,0,2.395-.265-.286-.473-.518-.689-.741a7.347,7.347,0,0,0-4.911-2.253,1.826,1.826,0,0,1-.561-.141c-1.327-.56-2.647-1.138-3.978-1.689m7.063,14.238a4.372,4.372,0,0,1-4.727.724,4.467,4.467,0,0,1-2.731-4.147h9.033a4.389,4.389,0,0,1-1.576,3.423m20.473.394a4.254,4.254,0,0,1-4.442.212,4.453,4.453,0,0,1-2.478-4.027h9.042a4.434,4.434,0,0,1-2.123,3.815" transform="translate(-22791.291 8314.221)" fill="#e50019"/><path d="M824.554,609.134c-.172,0-.344.01-.517.01-.818,0-1.636-.014-2.454,0a.72.72,0,0,0,.045,1.44c.484.009.969,0,1.454,0v.009c.5,0,.991,0,1.487,0a.734.734,0,1,0-.015-1.463" transform="translate(-22851.932 8273.771)" fill="#e50019"/></g></g></svg>