<svg xmlns="http://www.w3.org/2000/svg" width="80.014" height="30.935" viewBox="0 0 80.014 30.935"><g transform="translate(21707 -10091)"><g transform="translate(-22292 9723)"><path d="M79.714,22.4c-.11-1.13-.24-2.28-.36-3.41s-.21-2.26-.35-3.39a.623.623,0,0,0-.29-.46,15.625,15.625,0,0,0-1.93-.94,37.686,37.686,0,0,0-9.25-2.14c-.36-.05-.49-.16-.55-.53-.28-2.07-.59-4.15-.89-6.22-.09-.6-.16-1.19-.25-1.84,1.05.11,2.01.2,3.02.31v4.44h3.71c0-1.05.01-2.06,0-3.07A2.754,2.754,0,0,0,70,2.374c-1.4-.15-2.8-.28-4.2-.43a.734.734,0,0,1-.49-.27A3.608,3.608,0,0,0,62.1,0Q56.6.019,51.1.014,47.8,0,44.5.014H29.384Q16.921.014,4.475,0H4.134A4.3,4.3,0,0,0,0,4.464v7.42c0,.51.03,1.03.019,1.54,0,.99-.019,1.97-.019,2.95-.011,1.93,0,3.84,0,5.76v3.43c.239.02.419.03.61.03,2.14,0,4.28.01,6.42,0,.3,0,.439.05.489.39a5.872,5.872,0,0,0,11.59.05c.051-.28.08-.44.441-.44q14.609-.015,29.23.02a1.066,1.066,0,0,1,.68.3c.619.57,1.189,1.19,1.809,1.77a1.1,1.1,0,0,0,.64.28c3.33.01,6.67.01,10,0a1.064,1.064,0,0,0,.65-.28c.59-.53,1.11-1.14,1.73-1.64a1.5,1.5,0,0,1,.9-.2c.08,0,.2.23.23.38a5.878,5.878,0,0,0,5.68,4.71h.1a5.8,5.8,0,0,0,5.69-4.54c.12-.5.31-.61.78-.59.77.04,1.55.01,2.34.01-.1-1.18-.19-2.3-.3-3.41m-15.3-16.05.26-.34c.26,1.82.53,3.64.8,5.53a1.275,1.275,0,0,1-1.04-1.25c-.03-1.31-.02-2.63-.02-3.94M48.164,12.5h-5.61V6.174h.99c1.47,0,2.93.01,4.4,0,.36,0,.5.07.5.46-.02,1.81-.01,3.62-.02,5.43,0,.19.08.44-.26.44m-7.19-.04h-6.22V6.214h6.22Zm-7.75-.39c0,.32-.079.44-.419.44-.761-.01-1.52-.01-2.281-.01-.93,0-1.85,0-2.78.01-.32,0-.439-.09-.43-.42.011-1.85,0-3.69,0-5.53,0-.24.03-.39.32-.39,1.8.01,3.6.01,5.39.01a1.15,1.15,0,0,1,.17.06c0,.12.021.26.021.4.009,1.81,0,3.62.009,5.43m-7.4-5.52c-.011,1.85-.011,3.71,0,5.57,0,.29-.1.39-.381.39-.889-.01-1.779-.01-2.67-.01s-1.78,0-2.67.01c-.33,0-.38-.14-.38-.42.011-.93,0-1.85,0-2.77s.011-1.85,0-2.77c-.009-.28.081-.38.37-.38,1.781.01,3.56.01,5.35,0,.271,0,.381.08.381.38m-7.61-.36v6.29H12.364c-.01-.17-.039-.32-.039-.47,0-1.79.009-3.56-.011-5.35,0-.38.12-.5.491-.5h.02c1.619.02,3.25.01,4.879.01.15,0,.31.02.511.02m-7.43,6.27H5.174V6.2h5.611Zm2.549,16.96a4.375,4.375,0,1,1-.009-8.75h.019a4.375,4.375,0,0,1-.01,8.75m42.31-2.94h-.01c-.27-.01-.54-.02-.82-.02-.46,0-.92.01-1.4.01V6.214h2.77c.01.19.03.35.03.51q-.015,9.6.01,19.19c0,.46-.14.59-.58.57m4.46,0h-.01c-.33-.01-.65-.02-.98-.02s-.66,0-.99.01-.42-.1-.42-.43c.02-1.7.01-3.4,0-5.1,0-1.78-.02-3.56-.02-5.34,0-2.97.02-5.94.03-8.9v-.53c.89,0,1.7.01,2.51,0,.36,0,.31.23.31.45V12.2c0,1.99,0,3.99-.01,5.99V23.2c0,.94,0,1.88.02,2.81,0,.33-.08.49-.44.47m11.07,2.94a4.4,4.4,0,0,1-4.36-4.36H66.8v-.02a4.4,4.4,0,0,1,4.42-4.37h.01a4.375,4.375,0,0,1-.06,8.75" transform="translate(585 368)" fill="#ffd6db"/><path d="M22269.1-8935.068a5.876,5.876,0,0,1-5.682-4.708c-.033-.146-.156-.392-.229-.386a1.6,1.6,0,0,0-.9.2c-.615.509-1.141,1.112-1.727,1.648a1.073,1.073,0,0,1-.65.274q-5,.025-10,0a1.05,1.05,0,0,1-.643-.279c-.615-.576-1.186-1.2-1.807-1.772a1.108,1.108,0,0,0-.682-.3q-14.616-.025-29.236-.021c-.357,0-.385.167-.436.441a5.868,5.868,0,0,1-5.842,4.9,5.849,5.849,0,0,1-5.748-4.948c-.051-.335-.186-.392-.486-.392-2.141.012-4.283.006-6.424.006-.186,0-.369-.017-.609-.028v-3.433c0-1.918-.006-3.835,0-5.759,0-.984.021-1.968.021-2.952.006-.515-.021-1.028-.021-1.543v-7.414a4.3,4.3,0,0,1,4.467-4.461q12.454,0,24.914.011l15.117-.006q3.3-.007,6.6,0,5.493,0,11-.006a3.586,3.586,0,0,1,3.209,1.672.741.741,0,0,0,.492.263c1.4.156,2.8.285,4.2.431a2.763,2.763,0,0,1,2.572,2.784c.01,1.012,0,2.023,0,3.069h-3.707v-4.445c-1.018-.105-1.975-.2-3.02-.307.084.653.156,1.246.246,1.845.3,2.068.609,4.143.895,6.217.051.369.189.481.547.525a37.781,37.781,0,0,1,9.248,2.142,16.755,16.755,0,0,1,1.93.939.673.673,0,0,1,.295.464c.135,1.13.23,2.265.348,3.394s.252,2.271.357,3.405c.111,1.112.2,2.226.3,3.411-.789,0-1.566.027-2.344-.012-.463-.022-.652.09-.771.587a5.819,5.819,0,0,1-5.7,4.547Zm-4.295-5.865a4.395,4.395,0,0,0,4.361,4.355,4.409,4.409,0,0,0,4.4-4.327,4.436,4.436,0,0,0-4.334-4.417h-.01A4.393,4.393,0,0,0,22264.8-8940.934Zm-57.861.022a4.39,4.39,0,0,0,4.383,4.333,4.4,4.4,0,0,0,4.367-4.35,4.392,4.392,0,0,0-4.355-4.395h-.02A4.416,4.416,0,0,0,22206.941-8940.911Zm46.691,1.393c.447.021.586-.112.58-.57q-.023-9.586-.01-19.184c0-.162-.018-.329-.023-.52h-2.768v20.268c.477,0,.939-.011,1.4-.011C22253.086-8939.535,22253.359-8939.531,22253.633-8939.519Zm4.461,0c.363.017.447-.135.441-.47-.021-.934-.016-1.868-.016-2.807-.006-1.667,0-3.338,0-5.01.006-2,.01-4,.01-5.994v-5.579c0-.219.045-.453-.307-.447-.816.011-1.627,0-2.516,0v.525c-.012,2.963-.029,5.932-.033,8.9,0,1.784.021,3.562.027,5.346.006,1.7.012,3.4-.006,5.1,0,.33.1.441.426.431s.658-.018.986-.018S22257.764-8939.53,22258.094-8939.519Zm-9.482-1.6a16.2,16.2,0,0,0,1.158,1.174c.039-.021.072-.044.111-.062v-.687q0-10.021-.012-20.038c0-.458.107-.609.594-.6,3,.022,6,.011,9.006.011.168,0,.336.017.561.028v21.24l.105.05a12.084,12.084,0,0,0,1.107-1.106,1.578,1.578,0,0,1,1.52-.593c.045.006.1.006.141.011.3.051.426-.066.514-.374a9.146,9.146,0,0,1,.621-1.705,5.454,5.454,0,0,1,3.449-2.763,6.284,6.284,0,0,1,2.545-.15,5.586,5.586,0,0,1,4.92,4.69c.027.106.145.269.229.274.387.027.771.011,1.174.011-.043-.654-.072-1.246-.123-1.828-.166-1.756-.352-3.506-.514-5.261-.1-1.107-.291-1.342-1.4-1.61-.1-.028-.211-.039-.312-.073a37.723,37.723,0,0,0-6.9-1.728c-1.336-.229-2.684-.413-3.992-.743a2.869,2.869,0,0,1-2.215-2.985c0-1.208.023-2.41-.006-3.612a1.842,1.842,0,0,1,.93-1.772.947.947,0,0,0,.5-1.168,2.047,2.047,0,0,0-2.291-2.008h-57.342a2.878,2.878,0,0,0-3.187,3.2q0,5.82.006,11.635v7.8h2.789c.789,0,1.578-.033,2.365,0,.648.028.822-.072,1.008-.683a5.729,5.729,0,0,1,6.764-4.1,6.182,6.182,0,0,1,1.963.722,5.768,5.768,0,0,1,2.7,3.724c.033.128.213.318.33.318.787.012,1.582-.033,2.369-.033q4.479-.009,8.963-.006,8.959.009,17.926-.011h.035A2.175,2.175,0,0,1,22248.611-8941.118Zm13.8-18.528c-.006,1.313-.018,2.628.012,3.936a1.29,1.29,0,0,0,1.045,1.258c-.273-1.89-.537-3.712-.8-5.534Zm5.961-.135c0,.576.021.593.658.47.057-1.621.152-2.292-.658-2.577Zm-66.707,7.755c-.012-.168-.029-.3-.029-.441,0-2.768.018-5.535,0-8.3,0-.464.145-.564.586-.564q22.567.016,45.137.011h.537v9.3Zm29.135-1.465c.34,0,.42-.117.42-.436-.012-1.812-.006-3.623-.012-5.435,0-.135-.018-.274-.023-.4a.842.842,0,0,0-.168-.051c-1.793-.006-3.594-.006-5.389-.017-.291,0-.324.156-.318.392,0,1.839.006,3.684-.006,5.529-.006.335.117.419.436.419q1.389-.009,2.775-.011Q22229.656-8953.5,22230.8-8953.491Zm-7.363,0c.285,0,.379-.1.379-.386-.01-1.856-.01-3.718,0-5.574,0-.291-.107-.38-.381-.374q-2.675.007-5.346,0c-.291-.006-.379.1-.375.38.012.923.006,1.845.006,2.768s.006,1.845-.006,2.768c0,.279.051.419.381.419q1.339-.009,2.672-.008T22223.436-8953.491Zm17.107-.006h5.613c.336,0,.264-.245.264-.436.006-1.812-.006-3.623.012-5.435.006-.392-.141-.464-.492-.464-1.471.017-2.936.006-4.406.006h-.99Zm-30.236-5.837c.023,1.784.012,3.562.012,5.346,0,.15.023.3.033.475h5.85v-6.29c-.2,0-.354-.021-.51-.021-1.627,0-3.254.011-4.875-.012h-.025C22210.426-8959.837,22210.307-8959.716,22210.307-8959.334Zm-7.139,5.8h5.607v-6.262h-5.607Zm29.582-.006h6.217v-6.25h-6.217Z" transform="translate(-21613 9333.998)" fill="#e50019"/></g></g></svg>