<svg xmlns="http://www.w3.org/2000/svg" width="30.164" height="29.999" viewBox="0 0 30.164 29.999"><g transform="translate(21458 -10092)"><g transform="translate(-21465.199 10083.6)"><path d="M59.744,77h-.872a.9.9,0,0,0-.872.9v.572a.849.849,0,0,0,.49.79l-.381,4.823h2.4l-.327-4.823a.9.9,0,0,0,.545-.79V77.9a1.024,1.024,0,0,0-.981-.9Z" transform="translate(-36.958 -49.908)" fill="#ffd6db"/><path d="M35.156,76.871c-1.8-.49-8.093-2.071-8.093-2.071s-1.635,8.5-3.569,8.5H21.1c-1.744,0-3.134-7.6-3.6-8.447,0,0-6.294,1.553-8.093,2.044S7.2,81.476,7.2,84.391c0,0,3.924,2.316,15.1,2.316,11.144,0,15.068-2.316,15.068-2.316C37.363,81.476,36.982,77.361,35.156,76.871Z" transform="translate(0 -48.307)" fill="#ffd6db"/><path d="M50.54,12.9C49.7,9,45.962,8.4,44.164,8.4c-2.207,0-5.777.49-6.376,5.123a16.146,16.146,0,0,0,2.4,9.728c1.362,1.717,2.561,2.589,4.251,2.589,1.553,0,2.616-.763,4.06-2.834C49.8,21.1,51.221,16.193,50.54,12.9ZM47.6,22.378c-1.362,1.989-2.153,2.343-3.161,2.343-1.226,0-2.153-.6-3.406-2.18a15.06,15.06,0,0,1-2.18-8.91c.381-2.888,2.016-4.169,5.286-4.169,4.087,0,5.068,2.561,5.313,3.651C50.1,16.111,48.769,20.689,47.6,22.378Z" transform="translate(-22.195)" fill="#ffd6db"/></g><g transform="translate(-21465.199 10083.6)"><path d="M59.744,77h-.872a.9.9,0,0,0-.872.9v.572a.849.849,0,0,0,.49.79l-.381,4.823h2.4l-.327-4.823a.9.9,0,0,0,.545-.79V77.9a1.024,1.024,0,0,0-.981-.9Z" transform="translate(-36.958 -49.908)" fill="#e50019"/><path d="M35.156,76.871c-1.8-.49-8.093-2.071-8.093-2.071s-1.635,8.5-3.569,8.5H21.1c-1.744,0-3.134-7.6-3.6-8.447,0,0-6.294,1.553-8.093,2.044S7.2,81.476,7.2,84.391c0,0,3.924,2.316,15.1,2.316,11.144,0,15.068-2.316,15.068-2.316C37.363,81.476,36.982,77.361,35.156,76.871ZM8.317,83.683c.082-3.924.872-5.613,1.39-5.749,1.335-.354,5.232-1.335,7.084-1.8.054.245.136.49.191.736,1.172,4.387,2.125,7.493,4.114,7.493h2.4c1.417,0,2.48-1.5,3.569-5.014.381-1.2.654-2.4.845-3.243,1.88.49,5.668,1.444,6.975,1.8.518.136,1.308,1.826,1.39,5.749-1.39.572-5.559,1.907-13.951,1.907C13.9,85.59,9.707,84.255,8.317,83.683Z" transform="translate(0 -48.307)" fill="#e50019"/><path d="M50.54,12.9C49.7,9,45.962,8.4,44.164,8.4c-2.207,0-5.777.49-6.376,5.123a16.146,16.146,0,0,0,2.4,9.728c1.362,1.717,2.561,2.589,4.251,2.589,1.553,0,2.616-.763,4.06-2.834C49.8,21.1,51.221,16.193,50.54,12.9ZM47.6,22.378c-1.362,1.989-2.153,2.343-3.161,2.343-1.226,0-2.153-.6-3.406-2.18a15.06,15.06,0,0,1-2.18-8.91c.381-2.888,2.016-4.169,5.286-4.169,4.087,0,5.068,2.561,5.313,3.651C50.1,16.111,48.769,20.689,47.6,22.378Z" transform="translate(-22.195)" fill="#e50019"/></g></g></svg>