<svg xmlns="http://www.w3.org/2000/svg" width="60" height="31.769" viewBox="0 0 60 31.769"><g transform="translate(21611 -10091)"><path d="M1200.021,26.485c-.038.032-.091.118-.145.119q-6.389.016-12.777.019c-1.341,0-2.683.007-4.024-.008a.313.313,0,0,0-.364.3,5.98,5.98,0,0,1-6.083,4.84,5.947,5.947,0,0,1-5.452-4.032c-.124-.388-.2-.792-.309-1.184a.335.335,0,0,0-.192-.21c-.256-.053-.522-.069-.783-.1-.642-.072-1.288-.123-1.926-.219a11.457,11.457,0,0,1-2.386-.411,2.927,2.927,0,0,1-2.122-2.45,12.837,12.837,0,0,1-.083-1.551c-.009-1.807,0-3.614,0-5.421a3.014,3.014,0,0,1,2.4-3.218c1.55-.485,3.13-.873,4.7-1.3.877-.239,1.755-.465,2.628-.716a.9.9,0,0,0,.357-.275q1.755-1.906,3.5-3.819a6.171,6.171,0,0,1,2.4-1.7,6.817,6.817,0,0,1,2.3-.429q2.654-.025,5.311,0a.439.439,0,0,0,.506-.379c.288-.927.613-1.843.923-2.763.119-.352.224-.711.361-1.055a.777.777,0,0,1,.751-.5c1.1-.017,2.209-.008,3.313-.02a.891.891,0,0,1,.874.694c.3.828.552,1.672.826,2.508.14.431.293.858.424,1.293a.272.272,0,0,0,.318.216c.666-.007,1.332,0,2,0a8,8,0,0,1,5.307,1.893c1.375,1.132,2.725,2.294,4.088,3.442q1.562,1.318,3.128,2.634a.5.5,0,0,0,.242.1c.928.13,1.858.252,2.786.38.973.134,1.944.276,2.918.407.658.089,1.319.159,1.978.247,1,.134,2,.308,3,.4a2.615,2.615,0,0,1,1.436.519,2.8,2.8,0,0,1,1.14,1.881,8.843,8.843,0,0,1,.08,1.031q.012,2.354,0,4.709a3.033,3.033,0,0,1-2.026,2.917,9.845,9.845,0,0,1-2.372.479c-.745.119-1.494.208-2.243.307-.532.07-1.064.14-1.6.2-.339.037-.4.1-.454.423a5.957,5.957,0,0,1-1.517,3.139,5.815,5.815,0,0,1-2.4,1.6A6.021,6.021,0,0,1,1204,29.44a5.313,5.313,0,0,1-1.12-2.452c-.042-.252-.129-.389-.438-.376-.692.03-1.386.016-2.078,0a1.024,1.024,0,0,1-.341-.129m-24.947-15.04c.652.354,1.252.692,1.863,1.008a1.87,1.87,0,0,0,.769.29c5.457.017,10.915.011,16.372.018.254,0,.324-.071.323-.321q-.014-2.861,0-5.722c0-.266-.083-.337-.344-.337-2.463.009-4.927-.005-7.391.009q-2.64.015-5.279.086a3.938,3.938,0,0,0-2.817,1.2c-.771.8-1.516,1.62-2.27,2.434-.4.432-.795.869-1.226,1.339m1.764,10.042a4.285,4.285,0,1,0,4.273,4.292,4.277,4.277,0,0,0-4.273-4.292m31.9,8.547a4.274,4.274,0,1,0,0-8.548,4.274,4.274,0,0,0,0,8.548M1207.1,12.756l.048-.076c-.091-.069-.186-.135-.273-.209q-2.623-2.216-5.247-4.432a6.29,6.29,0,0,0-2.913-1.468c-.748-.135-1.523-.122-2.285-.186-.255-.022-.327.07-.326.321q.013,2.86,0,5.72c0,.262.067.337.334.336q5.2-.014,10.4-.006Z" transform="translate(-22774.369 10091.001)" fill="#ffd6db"/><path d="M1199.876,26.6q-6.389.016-12.777.019c-1.341,0-2.683.007-4.024-.008a.313.313,0,0,0-.364.3,5.98,5.98,0,0,1-6.083,4.84,5.947,5.947,0,0,1-5.452-4.032c-.124-.388-.2-.792-.309-1.184a.335.335,0,0,0-.192-.21c-.256-.053-.522-.069-.783-.1-.642-.072-1.288-.123-1.926-.219a11.457,11.457,0,0,1-2.386-.411,2.927,2.927,0,0,1-2.122-2.45,12.837,12.837,0,0,1-.083-1.551c-.009-1.807,0-3.614,0-5.421a3.014,3.014,0,0,1,2.4-3.218c1.55-.485,3.13-.873,4.7-1.3.877-.239,1.755-.465,2.628-.716a.9.9,0,0,0,.357-.275q1.755-1.906,3.5-3.819a6.171,6.171,0,0,1,2.4-1.7,6.817,6.817,0,0,1,2.3-.429q2.654-.025,5.311,0a.439.439,0,0,0,.506-.379c.288-.927.613-1.843.923-2.763.119-.352.224-.711.361-1.055a.777.777,0,0,1,.751-.5c1.1-.017,2.209-.008,3.313-.02a.891.891,0,0,1,.874.694c.3.828.552,1.672.826,2.508.14.431.293.858.424,1.293a.272.272,0,0,0,.318.216c.666-.007,1.332,0,2,0a8,8,0,0,1,5.307,1.893c1.375,1.132,2.725,2.294,4.088,3.442q1.562,1.318,3.128,2.634a.5.5,0,0,0,.242.1c.928.13,1.858.252,2.786.38.973.134,1.944.276,2.918.407.658.089,1.319.159,1.978.247,1,.134,2,.308,3,.4a2.615,2.615,0,0,1,1.436.519,2.8,2.8,0,0,1,1.14,1.881,8.843,8.843,0,0,1,.08,1.031q.012,2.354,0,4.709a3.033,3.033,0,0,1-2.026,2.917,9.845,9.845,0,0,1-2.372.479c-.745.119-1.494.208-2.243.307-.532.07-1.064.14-1.6.2-.339.037-.4.1-.454.423a5.957,5.957,0,0,1-1.517,3.139,5.815,5.815,0,0,1-2.4,1.6A6.021,6.021,0,0,1,1204,29.44a5.313,5.313,0,0,1-1.12-2.452c-.042-.252-.129-.389-.438-.376-.692.03-1.386.016-2.078,0m-35.219-8.563c-.011.106-.023.169-.023.232,0,1.478.009,2.957,0,4.435a1.384,1.384,0,0,0,.961,1.219c.634.108,1.268.223,1.9.326.323.053.65.089.975.126.587.068,1.176.131,1.763.2.184.021.243-.076.3-.236a8.814,8.814,0,0,1,.605-1.537,5.835,5.835,0,0,1,4.661-3.011,5.56,5.56,0,0,1,2.854.425,5.838,5.838,0,0,1,3.574,4.4c.037.187.114.3.345.292.629-.018,1.259-.007,1.889-.007h15.8c.588,0,1.177-.01,1.766.006a.284.284,0,0,0,.336-.259,5.433,5.433,0,0,1,.155-.646,6.217,6.217,0,0,1,1.013-1.931,5.886,5.886,0,0,1,5.836-2.214,5.523,5.523,0,0,1,2.516,1.116,5.962,5.962,0,0,1,2.193,3.3c.08.306.113.333.419.286.935-.141,1.871-.272,2.808-.409.889-.131,1.786-.233,2.667-.407a1.388,1.388,0,0,0,1.178-1.419c-.047-1.157-.021-2.318-.006-3.476,0-.27-.08-.333-.34-.331-1.4.012-2.811.015-4.216,0a2.735,2.735,0,0,1-2.521-2.127c-.063-.355-.06-.722-.106-1.081-.011-.083-.088-.216-.15-.226-.458-.074-.92-.121-1.38-.181-.677-.088-1.352-.184-2.029-.272a13.36,13.36,0,0,0-1.677-.2q-14.88-.018-29.759-.009c-.62,0-1.239.009-1.858-.005a1.915,1.915,0,0,1-.8-.106c-1.026-.524-2.03-1.094-3.045-1.639a.505.505,0,0,0-.309-.055c-.231.043-.456.118-.683.181-.936.26-1.869.534-2.811.77-.237.059-.288.153-.288.366.007,1.031-.014,2.063.01,3.094a.924.924,0,0,1-1,1.017c-.938-.036-1.88-.009-2.819-.009Zm9.931-6.606c.652.354,1.252.692,1.863,1.008a1.87,1.87,0,0,0,.769.29c5.457.017,10.915.011,16.372.018.254,0,.324-.071.323-.321q-.014-2.861,0-5.722c0-.266-.083-.337-.344-.337-2.463.009-4.927-.005-7.391.009q-2.64.015-5.279.086a3.938,3.938,0,0,0-2.817,1.2c-.771.8-1.516,1.62-2.27,2.434-.4.432-.795.869-1.226,1.339m1.764,10.042a4.285,4.285,0,1,0,4.273,4.292,4.277,4.277,0,0,0-4.273-4.292m31.9,8.547a4.274,4.274,0,1,0,0-8.548,4.274,4.274,0,0,0,0,8.548M1207.1,12.756l.048-.076c-.091-.069-.186-.135-.273-.209q-2.623-2.216-5.247-4.432a6.29,6.29,0,0,0-2.913-1.468c-.748-.135-1.523-.122-2.285-.186-.255-.022-.327.07-.326.321q.013,2.86,0,5.72c0,.262.067.337.334.336q5.2-.014,10.4-.006Zm-13.9-8.07c-.317-.952-.622-1.878-.942-2.8a.288.288,0,0,0-.225-.129c-.564-.012-1.129,0-1.694-.01-.152,0-.215.046-.263.2-.194.613-.413,1.217-.615,1.828-.1.3-.18.6-.272.913Zm28.357,12.124a1.123,1.123,0,0,0-.972-.9c-1.009-.123-2.018-.254-3.026-.382l-1.41-.181a4.463,4.463,0,0,0,.163.881,1.077,1.077,0,0,0,1.128.6q1.913.005,3.826,0c.089,0,.177-.01.291-.017m-56.387-.44c.858,0,1.7,0,2.55,0,.187,0,.206-.1.206-.242q0-.628,0-1.256V14.2a.936.936,0,0,0-.208,0c-.582.17-1.173.315-1.742.524a1.241,1.241,0,0,0-.806,1.643" transform="translate(-22774.369 10091.001)" fill="#e50019"/></g></svg>