<svg xmlns="http://www.w3.org/2000/svg" width="31.984" height="40" viewBox="0 0 31.984 40"><g transform="translate(-1627.67 -671.022)"><path d="M1644.756,671.022c.639.1,1.282.173,1.916.3a16.051,16.051,0,0,1,12.82,13.432,18.1,18.1,0,0,1-1.58,9.994,32.771,32.771,0,0,1-5.532,8.4,50.563,50.563,0,0,1-8.356,7.6c-.115.083-.234.159-.414.281-1.17-.936-2.372-1.846-3.517-2.823a45.241,45.241,0,0,1-7.913-8.582,25.539,25.539,0,0,1-4.091-8.86,16.068,16.068,0,0,1,11.613-19.227c.839-.216,1.713-.3,2.57-.44.1-.017.2-.045.3-.068Z" transform="translate(0)"/><path d="M1692.691,722.684a13.352,13.352,0,1,0-13.353,13.309A13.413,13.413,0,0,0,1692.691,722.684Z" transform="translate(-35.677 -35.639)"/><path d="M1679.4,736.243h-.067a13.57,13.57,0,0,1-9.588-23.2,13.462,13.462,0,0,1,9.573-3.994h.041a13.609,13.609,0,0,1,5.276,26.124A13.248,13.248,0,0,1,1679.4,736.243Zm-.082-26.7a13.1,13.1,0,0,0,.018,26.2h.064a13.1,13.1,0,0,0-.042-26.2Z" transform="translate(-35.677 -35.639)" fill="#fff"/><path d="M-894.356,856.612a30.8,30.8,0,0,1,11.257,0v5.572a6.011,6.011,0,0,0,.826-.008.589.589,0,0,0,.466-.587l-.2-.009a.284.284,0,0,1-.3-.3q-.007-1.088,0-2.177a.279.279,0,0,1,.315-.3q.478,0,.956,0a.278.278,0,0,1,.314.31q0,1.075,0,2.15a.285.285,0,0,1-.312.315c-.062,0-.123,0-.2,0-.009.058-.017.109-.025.16a1.193,1.193,0,0,1-1.167,1.018c-.216,0-.432,0-.666,0,0,.288-.01.565.007.841,0,.066.092.135.154.187a2.589,2.589,0,0,1,.879,1.5,3.186,3.186,0,0,1,.062.632c.007.73,0,1.46,0,2.19v.219l.131.032a.562.562,0,0,1,.448.6.557.557,0,0,1-.56.514c-.518,0-1.036,0-1.553,0h-.176v.2c0,.186,0,.372,0,.557a.383.383,0,0,1-.43.423q-.684,0-1.367,0a.379.379,0,0,1-.417-.42c0-.247,0-.493,0-.748h-5.621c0,.2-.01.389,0,.582.028.461-.13.606-.588.587-.4-.016-.805,0-1.208,0a.381.381,0,0,1-.421-.419c0-.247,0-.493,0-.755h-.172c-.522,0-1.044,0-1.566,0a.552.552,0,0,1-.536-.433.557.557,0,0,1,.281-.629,2.112,2.112,0,0,1,.283-.095v-.139q0-1.142,0-2.283a2.611,2.611,0,0,1,.413-1.487,8.776,8.776,0,0,1,.606-.714.327.327,0,0,0,.083-.176c.009-.247,0-.494,0-.754-.058,0-.1-.008-.151-.009-.208,0-.417.005-.623-.013a1.134,1.134,0,0,1-.948-.693,4.125,4.125,0,0,1-.166-.478c-.047,0-.117,0-.187,0a.27.27,0,0,1-.291-.278q-.006-1.109,0-2.217a.262.262,0,0,1,.278-.276q.5-.007,1.009,0a.281.281,0,0,1,.3.316c0,.358,0,.717,0,1.075q0,.5,0,1c0,.29-.091.382-.379.385h-.127a.619.619,0,0,0,.618.63c.2.011.4.009.6,0a.12.12,0,0,0,.08-.084c.007-.1-.007-.194-.007-.291q0-2.549,0-5.1Zm1.116,6.5a16.614,16.614,0,0,1,9.025,0v-4.469h-9.025Zm4.521-6.3v0c-.809,0-1.619,0-2.428,0-.2,0-.29.1-.291.3q0,.259,0,.517c0,.206.093.306.3.307q2.421,0,4.843,0a.258.258,0,0,0,.284-.292c0-.164,0-.327,0-.491,0-.259-.079-.338-.342-.338Zm-.065,10.5h1.142a.68.68,0,0,0,.171-.016.4.4,0,0,0,.288-.448.4.4,0,0,0-.415-.336q-1.168,0-2.336,0a.413.413,0,0,0-.459.406.41.41,0,0,0,.455.4C-889.555,867.313-889.17,867.313-888.785,867.313Zm-.007-1.884h1.168a.4.4,0,0,0,.443-.4.4.4,0,0,0-.439-.4q-1.168,0-2.336,0a.411.411,0,0,0-.439.4.405.405,0,0,0,.435.4C-889.57,865.429-889.18,865.428-888.791,865.428Zm-3.8-.278a.818.818,0,0,0-.823.812.823.823,0,0,0,.818.832.824.824,0,0,0,.823-.814A.818.818,0,0,0-892.589,865.15Zm8.545.819a.817.817,0,0,0-.816-.819.819.819,0,0,0-.825.823.824.824,0,0,0,.817.821A.823.823,0,0,0-884.044,865.969Z" transform="translate(2532.389 -176.371)" fill="#fff"/></g></svg>