<svg xmlns="http://www.w3.org/2000/svg" xmlns:xlink="http://www.w3.org/1999/xlink" width="395" height="252" viewBox="0 0 395 252"><defs><clipPath id="a"><rect width="395" height="252" rx="10" transform="translate(1470 380)" fill="#fff" stroke="#f5f5f5" stroke-width="1"/></clipPath><clipPath id="b"><rect width="407.439" height="235.36" fill="#fee250"/></clipPath><clipPath id="c"><rect width="13.432" height="11.158" fill="none"/></clipPath><clipPath id="e"><rect width="13.259" height="11.158" fill="none"/></clipPath><clipPath id="g"><rect width="197.011" height="18.277" fill="none"/></clipPath><clipPath id="h"><rect width="142.604" height="119.31" fill="none"/></clipPath><clipPath id="i"><rect width="47.047" height="109.371" fill="none"/></clipPath><clipPath id="j"><rect width="6.248" height="31.593" fill="none"/></clipPath><clipPath id="k"><rect width="2.14" height="31.735" fill="none"/></clipPath><clipPath id="p"><rect width="64.538" height="4.036" fill="none"/></clipPath><clipPath id="q"><rect width="44.368" height="35.892" fill="none"/></clipPath><clipPath id="r"><rect width="45.874" height="37.528" fill="none"/></clipPath><clipPath id="s"><rect width="45.074" height="35.892" fill="none"/></clipPath><clipPath id="u"><rect width="21.461" height="31.19" fill="none"/></clipPath><clipPath id="v"><rect width="39.193" height="4.569" fill="none"/></clipPath><clipPath id="w"><rect width="3.424" height="11.567" fill="none"/></clipPath><clipPath id="x"><rect width="1.173" height="11.619" fill="none"/></clipPath><clipPath id="y"><rect width="5.278" height="3.76" fill="none"/></clipPath><clipPath id="z"><rect width="18.211" height="34.447" fill="none"/></clipPath><clipPath id="aa"><rect width="35.84" height="52.246" fill="none"/></clipPath><clipPath id="ab"><rect width="98.485" height="8.06" fill="none"/></clipPath><clipPath id="ac"><rect width="72.172" height="17.136" fill="none"/></clipPath><clipPath id="ad"><rect width="27.647" height="43.286" fill="none"/></clipPath><clipPath id="af"><rect width="39.195" height="4.569" fill="none"/></clipPath><clipPath id="aj"><rect width="37.265" height="10.922" fill="none"/></clipPath><clipPath id="ak"><rect width="29.432" height="11.362" fill="none"/></clipPath><clipPath id="al"><rect width="19.702" height="40.452" fill="none"/></clipPath><clipPath id="ao"><rect width="11.484" height="40.421" fill="none"/></clipPath><clipPath id="ap"><rect width="2.467" height="1.585" fill="none"/></clipPath></defs><g transform="translate(-1470 -380)" clip-path="url(#a)"><g transform="translate(1438.139 396.64)"><g clip-path="url(#b)"><path d="M403.835,235.36H27.465S-54.963,74.513,65.774,54.084C174.661,35.658,182.647-17.008,241.712,5.5c31.385,11.958,38.547,44.435,62.37,74.6,12.343,15.624,45,15.065,70.335,32.466a69.632,69.632,0,0,1,7.142,5.6c19.72,17.677,32.487,50.146,22.274,117.19" transform="translate(0 0)" fill="#fff8d4"/></g></g><g transform="translate(1417.846 448.637)"><g transform="translate(0 0)"><path d="M216.076,504.657c-96.145,0-174.086,4.752-174.086,10.613s77.941,10.613,174.086,10.613,174.086-4.752,174.086-10.613-77.941-10.613-174.086-10.613" transform="translate(-41.99 -355.68)" opacity="0.12"/><path d="M988.928,247.824H975.395l-9.569,11.948v16.9l9.569,11.948h13.533L998.5,276.67v-16.9Z" transform="translate(-652.902 -185.842)" fill="#de3a00"/><path d="M990.559,251.734H977.906l-8.948,11.173v15.8l8.948,11.172h12.654l8.948-11.172v-15.8Zm7.887,26.424-8.326,10.4H978.345l-8.326-10.4v-14.7l8.326-10.4H990.12l8.326,10.4Z" transform="translate(-654.974 -188.427)" fill="#fff"/><path d="M983.639,294.742a.909.909,0,0,1,.776.375,1.74,1.74,0,0,1,.276,1.05h1.316a4,4,0,0,0-.3-1.58,2.471,2.471,0,0,0-.832-1.077,2.05,2.05,0,0,0-1.219-.381,2.219,2.219,0,0,0-1.226.351,2.273,2.273,0,0,0-.838.976,3.32,3.32,0,0,0-.292,1.422,3.007,3.007,0,0,0,1.088,2.438,5.678,5.678,0,0,0,1.084.672,3.091,3.091,0,0,1,.947.649,1.316,1.316,0,0,1,.263.881,1.186,1.186,0,0,1-.263.821.933.933,0,0,1-.733.294q-1.263,0-1.263-1.628h-1.32a4.118,4.118,0,0,0,.318,1.675,2.624,2.624,0,0,0,.923,1.138,2.319,2.319,0,0,0,1.342.416,2.118,2.118,0,0,0,1.689-.726,2.963,2.963,0,0,0,.627-2,3.383,3.383,0,0,0-.513-1.918,3.836,3.836,0,0,0-1.636-1.29,3.1,3.1,0,0,1-.923-.608,1.111,1.111,0,0,1-.314-.8,1.233,1.233,0,0,1,.268-.827.932.932,0,0,1,.75-.314" transform="translate(-663.008 -215.8)" fill="#fff"/><path d="M997.036,295.167h1.93v8.192h1.316v-8.192h1.956v-1.641h-5.2Z" transform="translate(-673.541 -216.064)" fill="#fff"/><path d="M1017.816,293.719a2,2,0,0,0-2.838,0,3.858,3.858,0,0,0-.961,1.7,8.693,8.693,0,0,0-.34,2.556v.486a8.476,8.476,0,0,0,.347,2.509,3.831,3.831,0,0,0,.965,1.678,2,2,0,0,0,2.84-.007,3.828,3.828,0,0,0,.954-1.688,8.762,8.762,0,0,0,.333-2.546v-.439a8.679,8.679,0,0,0-.34-2.549,3.86,3.86,0,0,0-.96-1.7m-.033,4.717a6.007,6.007,0,0,1-.36,2.333,1.118,1.118,0,0,1-1.018.8,1.137,1.137,0,0,1-1.035-.831,6.053,6.053,0,0,1-.36-2.336v-.48a5.892,5.892,0,0,1,.364-2.327,1.056,1.056,0,0,1,2.048.01,5.978,5.978,0,0,1,.36,2.35Z" transform="translate(-684.545 -215.8)" fill="#fff"/><path d="M1037.155,295.083a2.556,2.556,0,0,0-.84-1.151,2.066,2.066,0,0,0-1.266-.405h-2.492v9.833h1.316v-3.464h1.154a2.119,2.119,0,0,0,1.779-.834,3.645,3.645,0,0,0,.643-2.279,4.609,4.609,0,0,0-.294-1.7m-1.309,2.792a.922.922,0,0,1-.8.378h-1.176v-3.086h1.206a.889.889,0,0,1,.764.459,2.193,2.193,0,0,1,.276,1.168,1.819,1.819,0,0,1-.274,1.081" transform="translate(-697.031 -216.063)" fill="#fff"/><rect width="4.295" height="3.5" transform="translate(308.628 80.629)" fill="#de3a00"/><path d="M667.244,409.513H656.177l3.495,3.079c-4.23,3.741-7.057,10.52-7.057,18.264,0,8.006,3.024,14.979,7.495,18.631l-3.933,2.711h11.067c8.08,0,14.629-9.555,14.629-21.342s-6.55-21.343-14.629-21.343" transform="translate(-445.783 -292.763)" fill="#4f4635"/><path d="M634.571,409.513c-8.08,0-14.629,9.555-14.629,21.343s6.55,21.342,14.629,21.342,14.629-9.555,14.629-21.342-6.55-21.343-14.629-21.343" transform="translate(-424.177 -292.763)" fill="#1c1913"/><path d="M644.826,459.495c-5.171,0-9.377-6.137-9.377-13.68s4.206-13.679,9.377-13.679,9.377,6.137,9.377,13.679-4.207,13.68-9.377,13.68" transform="translate(-434.431 -307.723)" fill="#fdcf3a"/><path d="M655.384,467.009c-2.188,0-3.969-2.6-3.969-5.789s1.78-5.789,3.969-5.789,3.968,2.6,3.968,5.789-1.78,5.789-3.968,5.789" transform="translate(-444.99 -323.127)" fill="#1c1913"/><path d="M662.189,443.222c0,.8-.443,1.444-.99,1.444s-.99-.647-.99-1.444.443-1.444.99-1.444.99.647.99,1.444" transform="translate(-450.805 -314.099)" fill="#4f4635"/><path d="M662.189,499.241c0,.8-.443,1.444-.99,1.444s-.99-.647-.99-1.444.443-1.444.99-1.444.99.647.99,1.444" transform="translate(-450.805 -351.143)" fill="#4f4635"/><path d="M642,469.788c.547,0,.99.647.99,1.444s-.443,1.445-.99,1.445-.99-.647-.99-1.445.443-1.444.99-1.444" transform="translate(-438.108 -332.621)" fill="#4f4635"/><path d="M680.4,469.788c.547,0,.99.647.99,1.444s-.443,1.445-.99,1.445-.99-.647-.99-1.445.443-1.444.99-1.444" transform="translate(-463.501 -332.621)" fill="#4f4635"/><path d="M648.322,450.405a1.945,1.945,0,0,1,0,2.043.791.791,0,0,1-1.4,0,1.945,1.945,0,0,1,0-2.043.791.791,0,0,1,1.4,0" transform="translate(-441.827 -319.524)" fill="#4f4635"/><path d="M675.475,490.016a1.943,1.943,0,0,1,0,2.043.791.791,0,0,1-1.4,0,1.945,1.945,0,0,1,0-2.043.791.791,0,0,1,1.4,0" transform="translate(-459.782 -345.718)" fill="#4f4635"/><path d="M646.923,490.016a.791.791,0,0,1,1.4,0,1.945,1.945,0,0,1,0,2.043.791.791,0,0,1-1.4,0,1.945,1.945,0,0,1,0-2.043" transform="translate(-441.827 -345.718)" fill="#4f4635"/><path d="M674.075,450.405a.791.791,0,0,1,1.4,0,1.945,1.945,0,0,1,0,2.043.791.791,0,0,1-1.4,0,1.943,1.943,0,0,1,0-2.043" transform="translate(-459.782 -319.524)" fill="#4f4635"/><g transform="translate(222.623 132.717)" opacity="0.5" style="mix-blend-mode:multiply;isolation:isolate"><g clip-path="url(#c)"><path d="M712.626,464.2a74.012,74.012,0,0,0-.135-7.547H699.232v11.159h12.925a32.389,32.389,0,0,0,.468-3.611" transform="translate(-699.232 -456.65)" fill="#4f4635"/></g></g><path d="M261.193,409.513H250.126l3.495,3.079c-4.23,3.741-7.057,10.52-7.057,18.264,0,8.006,3.024,14.979,7.495,18.631l-3.933,2.711h11.067c8.08,0,14.629-9.555,14.629-21.342s-6.55-21.343-14.629-21.343" transform="translate(-177.27 -292.763)" fill="#4f4635"/><path d="M228.52,409.513c-8.08,0-14.629,9.555-14.629,21.343s6.55,21.342,14.629,21.342,14.629-9.555,14.629-21.342-6.55-21.343-14.629-21.343" transform="translate(-155.664 -292.763)" fill="#1c1913"/><path d="M238.775,459.495c-5.171,0-9.377-6.137-9.377-13.68s4.206-13.679,9.377-13.679,9.377,6.137,9.377,13.679-4.207,13.68-9.377,13.68" transform="translate(-165.919 -307.723)" fill="#fdcf3a"/><path d="M249.333,467.009c-2.188,0-3.968-2.6-3.968-5.789s1.78-5.789,3.968-5.789,3.968,2.6,3.968,5.789-1.78,5.789-3.968,5.789" transform="translate(-176.477 -323.127)" fill="#1c1913"/><path d="M256.138,443.222c0,.8-.444,1.444-.99,1.444s-.99-.647-.99-1.444.443-1.444.99-1.444.99.647.99,1.444" transform="translate(-182.292 -314.099)" fill="#4f4635"/><path d="M256.138,499.241c0,.8-.444,1.444-.99,1.444s-.99-.647-.99-1.444.443-1.444.99-1.444.99.647.99,1.444" transform="translate(-182.292 -351.143)" fill="#4f4635"/><path d="M235.948,469.788c.547,0,.99.647.99,1.444s-.443,1.445-.99,1.445-.99-.647-.99-1.445.443-1.444.99-1.444" transform="translate(-169.596 -332.621)" fill="#4f4635"/><path d="M274.347,469.788c.547,0,.99.647.99,1.444s-.443,1.445-.99,1.445-.99-.647-.99-1.445.443-1.444.99-1.444" transform="translate(-194.988 -332.621)" fill="#4f4635"/><path d="M242.271,450.405a1.943,1.943,0,0,1,0,2.043.791.791,0,0,1-1.4,0,1.945,1.945,0,0,1,0-2.043.791.791,0,0,1,1.4,0" transform="translate(-173.314 -319.524)" fill="#4f4635"/><path d="M269.424,490.016a1.943,1.943,0,0,1,0,2.043.791.791,0,0,1-1.4,0,1.943,1.943,0,0,1,0-2.043.791.791,0,0,1,1.4,0" transform="translate(-191.269 -345.718)" fill="#4f4635"/><path d="M240.872,490.016a.791.791,0,0,1,1.4,0,1.944,1.944,0,0,1,0,2.043.791.791,0,0,1-1.4,0,1.943,1.943,0,0,1,0-2.043" transform="translate(-173.314 -345.718)" fill="#4f4635"/><path d="M268.024,450.405a.791.791,0,0,1,1.4,0,1.944,1.944,0,0,1,0,2.043.791.791,0,0,1-1.4,0,1.943,1.943,0,0,1,0-2.043" transform="translate(-191.269 -319.524)" fill="#4f4635"/><g transform="translate(85.084 132.717)" opacity="0.5" style="mix-blend-mode:multiply;isolation:isolate"><g clip-path="url(#c)"><path d="M306.575,464.2a74.021,74.021,0,0,0-.135-7.547H293.181v11.159h12.925a32.3,32.3,0,0,0,.468-3.611" transform="translate(-293.181 -456.65)" fill="#4f4635"/></g></g><path d="M916.612,409.513H905.545l3.495,3.079c-4.23,3.741-7.057,10.52-7.057,18.264,0,8.006,3.024,14.979,7.495,18.631l-3.933,2.711h11.068c8.079,0,14.629-9.555,14.629-21.342s-6.55-21.343-14.629-21.343" transform="translate(-610.684 -292.763)" fill="#4f4635"/><g transform="translate(307.213 132.717)" opacity="0.5" style="mix-blend-mode:multiply;isolation:isolate"><g clip-path="url(#e)"><path d="M962.225,464.327c-.075-2.62-.2-5.187-.383-7.676H948.966v11.158h12.8a30.1,30.1,0,0,0,.462-3.482" transform="translate(-948.966 -456.651)" fill="#4f4635"/></g></g><path d="M883.938,409.513c-8.079,0-14.629,9.555-14.629,21.343s6.55,21.342,14.629,21.342,14.629-9.555,14.629-21.342-6.55-21.343-14.629-21.343" transform="translate(-589.078 -292.763)" fill="#1c1913"/><path d="M455.615,409.513H444.548l3.495,3.079c-4.23,3.741-7.057,10.52-7.057,18.264,0,8.006,3.024,14.979,7.495,18.631l-3.933,2.711h11.067c8.08,0,14.629-9.555,14.629-21.342s-6.55-21.343-14.629-21.343" transform="translate(-305.837 -292.763)" fill="#4f4635"/><g transform="translate(151.063 132.717)" opacity="0.5" style="mix-blend-mode:multiply;isolation:isolate"><g clip-path="url(#e)"><path d="M501.228,464.327c-.076-2.62-.2-5.187-.383-7.676H487.969v11.158h12.8a30.083,30.083,0,0,0,.462-3.482" transform="translate(-487.969 -456.651)" fill="#4f4635"/></g></g><path d="M422.942,409.513c-8.079,0-14.629,9.555-14.629,21.343s6.55,21.342,14.629,21.342,14.629-9.555,14.629-21.342-6.55-21.343-14.629-21.343" transform="translate(-284.231 -292.763)" fill="#1c1913"/><path d="M388.453,66.39c-13.507-.845-97.82-2.778-138.694-.439a127.01,127.01,0,0,0-20.714,2.339,113.425,113.425,0,0,0-16.451,4.277h0a50.9,50.9,0,0,0-13.3,5.909,18.675,18.675,0,0,0-5.474,4.317c-1.217,1.433-1.221,2.043-1.221,2.043h0a14.76,14.76,0,0,0-.473,1.887c-.018.083-.025.129-.025.129-1.386,7.253-2.38,26.871-2.38,49.939,0,29.238,1.6,63.449,3.564,63.449H328.76c1.968,0,3.564-34.211,3.564-63.449,0-23.068-.569-42.685-1.955-49.938,0,0,71.592-19.617,58.084-20.463" transform="translate(-139.681 -64.835)" fill="#fdcf3a"/><g transform="translate(53.875 0)" opacity="0.5" style="mix-blend-mode:screen;isolation:isolate"><g clip-path="url(#g)"><path d="M257.248,65.951c40.874-2.339,125.186-.407,138.694.439s-41.49,16.48-58.084,16.723c-63.676-5.282-136.813,0-136.813,0s4.021-5.457,19.039-10.545c19.154-6.49,27.762-6.078,37.165-6.616" transform="translate(-201.044 -64.836)" fill="#fdcf3a"/></g></g><g transform="translate(50.039 16.096)" opacity="0.75" style="mix-blend-mode:multiply;isolation:isolate"><g clip-path="url(#h)"><path d="M193.556,114.536c-2.965,3.056-3.836,30.611-3.836,53.679,0,29.238,1.6,63.449,3.564,63.449H328.76c1.968,0,3.564-34.211,3.564-63.449,0-23.068-1.219-48.339-1.219-53.435-59.055-5.311-137.549-.243-137.549-.243" transform="translate(-189.72 -112.354)" fill="#fdcf3a"/></g></g><g transform="translate(54.866 21.207)" opacity="0.35" style="mix-blend-mode:screen;isolation:isolate"><g clip-path="url(#i)"><path d="M210.948,128.9a5.685,5.685,0,0,0-5.356,5.043c-.9,8-1.623,22.805-1.623,44.251,0,25.633,1.172,50.307,2.316,58.622h44.731V127.444c-17.3.371-31.746,1.024-40.068,1.456" transform="translate(-203.969 -127.444)" fill="#fdcf3a"/></g></g><path d="M714.984,87.439h0a5.5,5.5,0,0,0-1.505-2.15c-4.942-5.043-27.9-15.863-55.486-15.863-28.56,0-52.163,11.095-55.942,16.4-1.217,1.433-1.221,2.043-1.221,2.043h0c-1.64,4.754-2.878,26.206-2.878,51.955,0,29.238-1.622,63.449.346,63.449H714.469c1.969,0,3.564-34.211,3.564-63.449,0-26.641-1.325-48.681-3.05-52.388" transform="translate(-409.221 -67.871)" fill="#fdcf3a"/><path d="M192.694,435.8a2.773,2.773,0,0,0-2.951,2.971c.674,4.755,2.732,8.838,3.986,8.838h143.8c1.254,0,2.227-11.809.385-11.809Z" transform="translate(-139.681 -310.145)" fill="#352f24"/><path d="M239.548,148.515h0c0-.8-4.985-1.451-11.133-1.451s-11.133.65-11.133,1.451h0c-.467,1.294-.826,8.815-.826,17.9,0,10,.434,18.1.969,18.1h.1c.731.708,5.324,1.253,10.886,1.253s10.155-.545,10.886-1.253h.1c.535,0,.969-8.1.969-18.1,0-9.087-.359-16.609-.826-17.9" transform="translate(-157.36 -119.211)" fill="#4b9497"/><g transform="translate(61.425 31.409)" style="mix-blend-mode:screen;isolation:isolate"><g clip-path="url(#j)"><path d="M229.58,157.564a39.495,39.495,0,0,0-5.788.582c-.223,2.438-.459,7.781-.459,15.215,0,7.4.234,12.735.457,15.187a36.825,36.825,0,0,0,5.791.608Z" transform="translate(-223.332 -157.564)" fill="#4b9497"/></g></g><g transform="translate(68.915 31.339)" style="mix-blend-mode:screen;isolation:isolate"><g clip-path="url(#k)"><path d="M245.445,157.385v31.678c.678.018,1.39.028,2.14.028V157.357q-1.124,0-2.14.028" transform="translate(-245.445 -157.357)" fill="#4b9497"/></g></g><path d="M238.24,146.582c-.1-.821-.849-1.277-4-1.665a82.2,82.2,0,0,0-16.764,0c-3.15.388-3.9.844-4,1.664-.612,2.082-.887,10.5-.887,18.133,0,4.858.107,9.428.3,12.869.293,5.163.627,6.073,1.3,6.1,1.6.986,7.993,1.254,11.663,1.254s10.063-.269,11.663-1.254c.676-.03,1.01-.939,1.3-6.1.195-3.441.3-8.011.3-12.869,0-7.632-.275-16.05-.886-18.133m-12.382-.35c6.3,0,10.462.6,11.259,1.061.313,1.032.751,6.816.776,16.55H213.824c.025-9.733.463-15.517.776-16.549.8-.462,4.961-1.062,11.258-1.062m11.3,35.748-.119.1c-.539.467-4.726,1.114-11.183,1.114s-10.643-.647-11.181-1.113l-.122-.111c-.317-1.408-.708-7.387-.731-16.386h24.069c-.024,9.014-.416,15-.733,16.393" transform="translate(-154.805 -117.508)" fill="#4f4635"/><path d="M420.565,148.515h0c0-.8-4.985-1.451-11.133-1.451s-11.133.65-11.133,1.451h0c-.467,1.294-.826,8.815-.826,17.9,0,10,.434,18.1.969,18.1h.1c.731.708,5.324,1.253,10.886,1.253s10.155-.545,10.886-1.253h.1c.535,0,.969-8.1.969-18.1,0-9.087-.358-16.609-.826-17.9" transform="translate(-277.062 -119.211)" fill="#4b9497"/><g transform="translate(122.739 31.409)" style="mix-blend-mode:screen;isolation:isolate"><g clip-path="url(#j)"><path d="M410.6,157.564a39.495,39.495,0,0,0-5.788.582c-.223,2.438-.459,7.781-.459,15.215,0,7.4.234,12.735.457,15.187a36.824,36.824,0,0,0,5.791.608Z" transform="translate(-404.349 -157.564)" fill="#4b9497"/></g></g><g transform="translate(130.229 31.339)" style="mix-blend-mode:screen;isolation:isolate"><g clip-path="url(#k)"><path d="M426.462,157.385v31.678c.678.018,1.39.028,2.14.028V157.357c-.749,0-1.461.01-2.14.028" transform="translate(-426.462 -157.357)" fill="#4b9497"/></g></g><path d="M419.437,146.582c-.1-.821-.837-1.277-3.947-1.665a80.05,80.05,0,0,0-16.543,0c-3.108.388-3.846.844-3.946,1.664-.6,2.082-.875,10.5-.875,18.133,0,4.858.106,9.428.3,12.869.289,5.163.618,6.073,1.286,6.1,1.579.986,7.888,1.254,11.509,1.254s9.93-.269,11.509-1.254c.667-.03,1-.939,1.285-6.1.192-3.441.3-8.011.3-12.869,0-7.632-.271-16.05-.875-18.133m-12.218-.35c6.214,0,10.324.6,11.11,1.061.308,1.032.741,6.816.766,16.55H395.343c.024-9.733.457-15.517.766-16.549.786-.462,4.9-1.062,11.11-1.062m11.152,35.748-.118.1c-.532.467-4.663,1.114-11.035,1.114s-10.5-.647-11.034-1.113l-.12-.111c-.313-1.408-.7-7.387-.721-16.386h23.752c-.024,9.014-.411,15-.724,16.393" transform="translate(-274.85 -117.508)" fill="#4f4635"/><path d="M330.651,148.515h0c0-.8-4.985-1.451-11.133-1.451s-11.133.65-11.133,1.451h0c-.467,1.294-.826,8.815-.826,17.9,0,10,.434,18.1.969,18.1h.1c.731.708,5.324,1.253,10.886,1.253s10.155-.545,10.886-1.253h.1c.535,0,.969-8.1.969-18.1,0-9.087-.358-16.609-.826-17.9" transform="translate(-217.604 -119.211)" fill="#4b9497"/><g transform="translate(92.283 31.409)" style="mix-blend-mode:screen;isolation:isolate"><g clip-path="url(#j)"><path d="M320.683,157.564a39.494,39.494,0,0,0-5.788.582c-.223,2.438-.459,7.781-.459,15.215,0,7.4.234,12.735.457,15.187a36.825,36.825,0,0,0,5.791.608Z" transform="translate(-314.435 -157.564)" fill="#4b9497"/></g></g><g transform="translate(99.773 31.339)" style="mix-blend-mode:screen;isolation:isolate"><g clip-path="url(#k)"><path d="M336.548,157.385v31.678c.678.018,1.39.028,2.14.028V157.357c-.749,0-1.461.01-2.14.028" transform="translate(-336.548 -157.357)" fill="#4b9497"/></g></g><path d="M329.419,146.582c-.1-.821-.844-1.277-3.977-1.665a81.283,81.283,0,0,0-16.67,0c-3.133.388-3.876.844-3.977,1.664-.609,2.082-.882,10.5-.882,18.133,0,4.858.107,9.428.3,12.869.291,5.164.623,6.073,1.3,6.1,1.592.986,7.948,1.254,11.6,1.254s10.006-.268,11.6-1.254c.672-.03,1-.939,1.3-6.1.194-3.441.3-8.011.3-12.869,0-7.632-.273-16.05-.882-18.133m-12.312-.35c6.262,0,10.4.6,11.2,1.061.311,1.032.747,6.816.772,16.55H305.14c.025-9.733.461-15.517.772-16.549.792-.462,4.933-1.062,11.2-1.062m11.238,35.748-.119.1c-.536.467-4.7,1.114-11.12,1.114s-10.583-.647-11.119-1.113l-.121-.111c-.315-1.408-.7-7.387-.727-16.386h23.934c-.024,9.014-.414,15-.729,16.393" transform="translate(-215.195 -117.508)" fill="#4f4635"/><path d="M515.664,124.885H484.15a4.774,4.774,0,0,0-4.484,5.018V236.566a4.774,4.774,0,0,0,4.484,5.018h31.514a4.774,4.774,0,0,0,4.484-5.018V129.9a4.773,4.773,0,0,0-4.484-5.018" transform="translate(-331.416 -104.545)" fill="#1c1913"/><path d="M487.291,243.116a3.18,3.18,0,0,1-2.875-3.409V133.045a3.18,3.18,0,0,1,2.875-3.409h31.514a3.18,3.18,0,0,1,2.875,3.409V239.708a3.18,3.18,0,0,1-2.875,3.409Z" transform="translate(-334.557 -107.687)" fill="#304047"/><path d="M612.545,415.281c-1.788,0-1.629.995-1.406,2.573.674,4.755.761,10.85,1.122,12.489.51,2.32,1.693,3.7,2.947,3.7H741.062c1.254,0,2.582-1.393,3.368-3.65.691-1.987,1.951-7.919,2.778-11.991l.005-.025a2.754,2.754,0,0,0-2.929-3.092Z" transform="translate(-418.268 -296.577)" fill="#4f4635"/><g transform="translate(201.295 131.067)" style="mix-blend-mode:screen;isolation:isolate"><g clip-path="url(#p)"><path d="M698.794,451.781H638.282a2.018,2.018,0,0,0,0,4.036h60.512a2.018,2.018,0,0,0,0-4.036" transform="translate(-636.269 -451.781)" fill="#4f4635"/></g></g><path d="M716.219,94.285h0s-.036-.089-.111-.232a3.9,3.9,0,0,0-1.394-1.608h0c-.08-.07-.167-.142-.256-.215l-.1-.077c-.06-.047-.122-.1-.186-.144l-.13-.1-.177-.128-.155-.11-.167-.114q-.188-.128-.392-.259l-.114-.074c-.084-.054-.171-.108-.259-.162l-.128-.079-.275-.166-.039-.023h0c-4.085-2.42-11.659-5.542-21.424-7.985v7.247c-9.56-.206-20.442-.32-31.686-.32-11.312,0-22.255.116-31.857.324V82.727c-9.855,2.422-17.46,5.553-21.467,8.082h0l-.062.04c-.106.067-.21.134-.311.2l-.134.089c-.1.066-.194.131-.287.2l-.131.092c-.087.062-.174.124-.256.186l-.131.1c-.076.058-.151.116-.223.172l-.135.11c-.063.052-.127.1-.186.155s-.095.084-.141.126-.1.089-.147.133-.1.1-.153.151c-.033.034-.069.068-.1.1-.079.083-.152.165-.219.245-1.062,1.07-.982.943-1.134,1.47a.828.828,0,0,0-.087.278h0c-1.586,3.934-2.8,21.235-2.874,42.3,0,.123,0,.247,0,.37a1.308,1.308,0,0,0,1.327,1.147c11.111.876,33.606,1.421,58.707,1.421s47.6-.545,58.707-1.421a1.308,1.308,0,0,0,1.327-1.147c0-.121,0-.243,0-.363-.08-21.822-1.376-39.605-3.045-42.677" transform="translate(-410.456 -76.667)" fill="#4f4635"/><path d="M668.393,110.952c-20.045.02-37.678.42-48.371,1.024a2.96,2.96,0,0,0-2.96,2.279c-.854,6.809-1.655,19.8-1.655,38.076v.024a2.871,2.871,0,0,0,2.956,2.531c10.468.659,28.909,1.1,50.03,1.123Z" transform="translate(-421.177 -95.331)" fill="#4b9497"/><g transform="translate(196.983 18.521)" style="mix-blend-mode:screen;isolation:isolate"><g clip-path="url(#q)"><path d="M667.906,119.514c-16.978.082-32.51.446-42.359,1a1.2,1.2,0,0,0-.423.1c-.941,7.719-1.522,20.542-1.586,34.793,10.359-8.229,36.324-28.915,44.368-35.892" transform="translate(-623.538 -119.514)" fill="#4b9497"/></g></g><g transform="translate(198.594 19.528)" style="mix-blend-mode:screen;isolation:isolate"><g clip-path="url(#r)"><path d="M634.543,160.015c10.228-8.132,30.2-24.065,39.622-31.969v-5.56c-6.356,5.771-34.879,28.492-45.874,37.223,1.884.109,3.977.211,6.251.306" transform="translate(-628.292 -122.487)" fill="#4b9497"/></g></g><path d="M655.238,107.4a.787.787,0,0,0-1.143-.125l-6.768,5.76c.288-.8-.481-1-1.22-1.407-.8-.433-1.323-.814-1.736.023L631.8,137.11a.556.556,0,0,0,.184.705.5.5,0,0,0,.709-.171l12.071-20.23,10.357-8.814a.881.881,0,0,0,.119-1.2" transform="translate(-431.98 -92.775)" fill="#1c1913"/><path d="M832.37,114.257a2.959,2.959,0,0,0-2.96-2.281c-10.692-.6-28.328-1-48.378-1.025v45.056c21.121-.021,39.563-.465,50.031-1.124a2.871,2.871,0,0,0,2.956-2.53v-.024c0-18.24-.8-31.277-1.648-38.073" transform="translate(-530.702 -95.331)" fill="#4b9497"/><g transform="translate(252.375 18.521)" style="mix-blend-mode:screen;isolation:isolate"><g clip-path="url(#s)"><path d="M832.145,119.514c-16.978.082-44.744.211-44.744,1.1-.941,7.719.44,20.542.376,34.793,10.359-8.229,36.324-28.915,44.368-35.892" transform="translate(-787.071 -119.514)" fill="#4b9497"/></g></g><g transform="translate(254.691 19.528)" style="mix-blend-mode:screen;isolation:isolate"><g clip-path="url(#r)"><path d="M800.16,160.015c10.228-8.132,30.2-24.065,39.622-31.969v-5.56c-6.356,5.771-34.879,28.492-45.874,37.223,1.885.109,3.977.211,6.251.306" transform="translate(-793.909 -122.487)" fill="#4b9497"/></g></g><path d="M817.406,107.4a.787.787,0,0,0-1.143-.125l-6.768,5.76c.288-.8-.481-1-1.22-1.407-.8-.433-1.323-.814-1.736.023L793.966,137.11a.556.556,0,0,0,.184.705.5.5,0,0,0,.709-.171l12.071-20.23,10.357-8.814a.881.881,0,0,0,.119-1.2" transform="translate(-539.218 -92.775)" fill="#1c1913"/><path d="M711.422,81.13a.981.981,0,0,1,.628-.179.923.923,0,0,1,.65.214.775.775,0,0,1,.231.6h1.1a1.668,1.668,0,0,0-.248-.9,1.649,1.649,0,0,0-.7-.615,2.306,2.306,0,0,0-1.021-.218,2.53,2.53,0,0,0-1.027.2,1.6,1.6,0,0,0-.7.557,1.4,1.4,0,0,0-.244.811,1.558,1.558,0,0,0,.911,1.391,5.467,5.467,0,0,0,.908.383,2.821,2.821,0,0,1,.794.37.6.6,0,0,1,.22.5.555.555,0,0,1-.22.468.994.994,0,0,1-.614.168q-1.058,0-1.058-.928h-1.106a1.722,1.722,0,0,0,.266.956,1.8,1.8,0,0,0,.773.649,2.624,2.624,0,0,0,1.124.237,2.224,2.224,0,0,0,1.414-.414,1.376,1.376,0,0,0,.525-1.143,1.5,1.5,0,0,0-.43-1.094,3.291,3.291,0,0,0-1.37-.736,2.9,2.9,0,0,1-.773-.347.547.547,0,0,1-.263-.459.575.575,0,0,1,.224-.472" transform="translate(-483.685 -74.883)" fill="#4f4635"/><path d="M725.167,81.392a.922.922,0,0,1,.825-.414,1.036,1.036,0,0,1,.755.245,1.2,1.2,0,0,1,.288.788h1.1a2.178,2.178,0,0,0-.654-1.461,2.159,2.159,0,0,0-3.442.755,3.505,3.505,0,0,0-.272,1.426v.343a3.078,3.078,0,0,0,.589,1.994,1.971,1.971,0,0,0,1.618.727,2.171,2.171,0,0,0,1.515-.52,2.026,2.026,0,0,0,.638-1.426h-1.1a1.132,1.132,0,0,1-.289.757,1.053,1.053,0,0,1-.762.245.9.9,0,0,1-.828-.42,2.582,2.582,0,0,1-.263-1.329v-.424a2.411,2.411,0,0,1,.281-1.285" transform="translate(-492.835 -74.883)" fill="#4f4635"/><path d="M742.028,82.531H739.88V80.258h-1.1v5.611h1.1v-2.4h2.149v2.4h1.1V80.258h-1.1Z" transform="translate(-502.76 -75.034)" fill="#4f4635"/><path d="M757.458,80.367a2.262,2.262,0,0,0-2.377,0,2.2,2.2,0,0,0-.8.967,3.507,3.507,0,0,0-.284,1.459v.277a3.416,3.416,0,0,0,.29,1.432,2.2,2.2,0,0,0,.808.958,2.265,2.265,0,0,0,2.378,0,2.177,2.177,0,0,0,.8-.963,3.53,3.53,0,0,0,.279-1.453v-.25a3.5,3.5,0,0,0-.285-1.455,2.194,2.194,0,0,0-.8-.967m-.027,2.691a2.474,2.474,0,0,1-.3,1.332.958.958,0,0,1-.852.457.968.968,0,0,1-.867-.474,2.491,2.491,0,0,1-.3-1.334v-.273a2.421,2.421,0,0,1,.3-1.328,1.036,1.036,0,0,1,1.716.006,2.456,2.456,0,0,1,.3,1.341Z" transform="translate(-512.821 -74.883)" fill="#4f4635"/><path d="M772.792,80.367a2.261,2.261,0,0,0-2.376,0,2.192,2.192,0,0,0-.8.967,3.507,3.507,0,0,0-.285,1.459v.277a3.437,3.437,0,0,0,.29,1.432,2.2,2.2,0,0,0,.808.958,2.265,2.265,0,0,0,2.378,0,2.177,2.177,0,0,0,.8-.963,3.532,3.532,0,0,0,.279-1.453v-.25a3.5,3.5,0,0,0-.285-1.455,2.192,2.192,0,0,0-.8-.967m-.027,2.691a2.474,2.474,0,0,1-.3,1.332,1.027,1.027,0,0,1-1.719-.017,2.485,2.485,0,0,1-.3-1.334v-.273a2.423,2.423,0,0,1,.3-1.328,1.036,1.036,0,0,1,1.716.006,2.457,2.457,0,0,1,.3,1.341Z" transform="translate(-522.961 -74.883)" fill="#4f4635"/><path d="M786.239,80.257h-1.1v5.611h3.442v-.929h-2.34Z" transform="translate(-533.417 -75.034)" fill="#4f4635"/><path d="M805.783,82.982a1.173,1.173,0,0,0,.562-.461,1.31,1.31,0,0,0,.2-.726,1.364,1.364,0,0,0-.5-1.147,2.374,2.374,0,0,0-1.476-.391h-1.874v5.611h2.079a2.144,2.144,0,0,0,1.4-.424,1.516,1.516,0,0,0,.492-1.225,1.329,1.329,0,0,0-.237-.8,1.124,1.124,0,0,0-.648-.436M803.8,81.194h.771a1.071,1.071,0,0,1,.667.168.66.66,0,0,1,.211.549q0,.682-.834.7H803.8Zm1.552,3.551a.882.882,0,0,1-.608.194H803.8V83.425h1.01a.779.779,0,0,1,.542,1.32" transform="translate(-545.027 -75.034)" fill="#4f4635"/><path d="M819.711,83.992q-.015,1.025-.944,1.025a.938.938,0,0,1-.7-.252,1.1,1.1,0,0,1-.252-.8v-3.7h-1.1V84a1.905,1.905,0,0,0,.562,1.43,2.078,2.078,0,0,0,1.488.52,2.055,2.055,0,0,0,1.5-.536,1.941,1.941,0,0,0,.549-1.456v-3.7h-1.106Z" transform="translate(-554.3 -75.034)" fill="#4f4635"/><path d="M833.128,82.407a2.9,2.9,0,0,1-.773-.347.546.546,0,0,1-.263-.459.575.575,0,0,1,.224-.472.981.981,0,0,1,.628-.179.922.922,0,0,1,.65.214.775.775,0,0,1,.232.6h1.1a1.632,1.632,0,0,0-.944-1.516,2.31,2.31,0,0,0-1.021-.218,2.534,2.534,0,0,0-1.027.2,1.606,1.606,0,0,0-.7.557,1.4,1.4,0,0,0-.244.811,1.558,1.558,0,0,0,.911,1.391,5.5,5.5,0,0,0,.908.383,2.835,2.835,0,0,1,.793.37.6.6,0,0,1,.22.5.555.555,0,0,1-.22.468,1,1,0,0,1-.613.168q-1.058,0-1.058-.929h-1.106a1.719,1.719,0,0,0,.266.956,1.8,1.8,0,0,0,.773.649,2.622,2.622,0,0,0,1.124.237,2.223,2.223,0,0,0,1.414-.414,1.375,1.375,0,0,0,.525-1.143,1.5,1.5,0,0,0-.43-1.094,3.29,3.29,0,0,0-1.37-.736" transform="translate(-563.629 -74.883)" fill="#4f4635"/><path d="M958.155,157.96h-4.213a2.348,2.348,0,0,0-2.29,2.4v18.065a2.348,2.348,0,0,0,2.29,2.4h1.11a5.729,5.729,0,0,1-1.132,3.755c-.971,1.023-2.827,1.5-5.84,1.5a1.01,1.01,0,0,0,0,2.018c3.607,0,5.828-.646,7.2-2.094,1.235-1.3,1.594-3.048,1.694-5.179h1.178a2.348,2.348,0,0,0,2.29-2.4V160.362a2.348,2.348,0,0,0-2.29-2.4" transform="translate(-640.531 -126.417)" fill="#1c1913"/><path d="M932.415,336.814c0-2.4.134-3.969-3-4.1-8.776-.375-31.159-.148-34.6,2.242-.477.332-1.548,1.023-1.658,1.695-1.113,6.784.438,20.595,2.309,27.448.459,1.68.865,3.438,2.348,3.438h16.43a4.3,4.3,0,0,0,4.3-4.3Z" transform="translate(-604.6 -241.88)" fill="#fdcf3a"/><g transform="translate(288.182 94.552)" opacity="0.5" style="mix-blend-mode:multiply;isolation:isolate"><g clip-path="url(#u)"><path d="M893.156,344.194c-1.113,6.784.438,20.595,2.309,27.448.458,1.68.865,3.437,2.348,3.437h16.43c-6.148,2-5.84-30.447-5.84-30.447s-15.136-1.111-15.247-.439" transform="translate(-892.782 -343.978)" fill="#fdcf3a"/></g></g><g transform="translate(288.622 90.687)" opacity="0.5" style="mix-blend-mode:screen;isolation:isolate"><g clip-path="url(#v)"><path d="M930.271,332.711c-8.776-.375-31.16-.148-34.6,2.242a4.773,4.773,0,0,0-1.593,1.485c5.085.011,15.977.7,15.977.7l23.217-.322c0-2.4.134-3.969-3-4.1" transform="translate(-894.081 -332.567)" fill="#fdcf3a"/></g></g><path d="M963.747,338.18a4.294,4.294,0,0,0-4.364-4.3c-8.783.153-17.137.673-19.36,1.94-.5.287-1.548,1.023-1.658,1.694-1.113,6.784.438,20.6,2.309,27.448.459,1.68.865,3.437,2.348,3.437h16.43a4.3,4.3,0,0,0,4.3-4.3Z" transform="translate(-634.496 -242.751)" fill="#fdcf3a"/><path d="M964.864,367.7a29.035,29.035,0,0,1-6.144-.465c-.906-.093-1-1.264-1.117-2.731-.1-1.274-.158-2.963-.158-4.755,0-1.314.036-5.5.474-6.771.17-.813,1.332-.914,2.555-1.021,1.177-.1,2.736-.159,4.39-.159s3.213.056,4.39.159c1.224.107,2.386.208,2.556,1.021.438,1.27.474,5.457.474,6.771,0,1.792-.057,3.481-.159,4.755-.118,1.466-.211,2.637-1.117,2.731a29.033,29.033,0,0,1-6.144.465" transform="translate(-647.36 -254.6)" fill="#4f4635"/><path d="M972.655,354.886h0c0-.293-2.732-.531-6.1-.531s-6.1.238-6.1.531h0a28.615,28.615,0,0,0-.453,6.554c0,3.66.238,6.627.531,6.627h.057c.4.259,2.918.459,5.966.459s5.566-.2,5.966-.459h.057c.293,0,.531-2.967.531-6.627a28.625,28.625,0,0,0-.452-6.554" transform="translate(-649.049 -256.288)" fill="#4b9497"/><g transform="translate(312.226 99.369)" style="mix-blend-mode:screen;isolation:isolate"><g clip-path="url(#w)"><path d="M967.191,358.2c-1.473.042-2.566.129-3.172.213a61.783,61.783,0,0,0,0,11.13,29.843,29.843,0,0,0,3.174.223Z" transform="translate(-963.767 -358.199)" fill="#4b9497"/></g></g><g transform="translate(316.331 99.343)" style="mix-blend-mode:screen;isolation:isolate"><g clip-path="url(#x)"><path d="M975.887,358.133v11.6c.371.006.761.01,1.173.01V358.123q-.616,0-1.173.01" transform="translate(-975.887 -358.123)" fill="#4b9497"/></g></g><path d="M964.864,412.274c-.526,0-5,0-6.035-.149-1.144-.01-1.385-1.641-1.385-3.01a4.436,4.436,0,0,1,.609-2.639.79.79,0,0,1,.2-.18q.034-.024.068-.045l0,0a2.163,2.163,0,0,1,.864-.191c.318-.021.77-.04,1.341-.056,1.16-.033,2.7-.051,4.339-.051s3.178.018,4.339.051c.571.016,1.023.035,1.341.056a2.154,2.154,0,0,1,.865.191l0,0q.035.021.068.045a.775.775,0,0,1,.2.18,4.438,4.438,0,0,1,.61,2.639c0,1.369-.241,3-1.385,3.01-1.036.144-5.509.149-6.035.149" transform="translate(-647.36 -290.411)" fill="#4f4635"/><path d="M972.655,408.683h0a108.289,108.289,0,0,0-12.2,0A3.333,3.333,0,0,0,960,410.8c0,1.185.238,2.145.531,2.145h.057c.4.084,2.918.148,5.966.148s5.566-.065,5.966-.148h.057c.293,0,.531-.96.531-2.145a3.334,3.334,0,0,0-.452-2.121" transform="translate(-649.049 -292.1)" fill="#f15a24"/><g transform="translate(312.226 116.824)" style="mix-blend-mode:screen;isolation:isolate"><g clip-path="url(#y)"><path d="M967.191,409.755c-1.473.014-2.566.042-3.172.069a6.584,6.584,0,0,0,0,3.6c.576.028,1.674.058,3.174.072Z" transform="translate(-963.767 -409.747)" fill="#f15a24"/><path d="M975.887,409.734v3.754c.371,0,.761,0,1.173,0v-3.76q-.616,0-1.173,0" transform="translate(-971.782 -409.731)" fill="#f15a24"/></g></g><g transform="translate(295.467 91.207)" opacity="0.5" style="mix-blend-mode:multiply;isolation:isolate"><g clip-path="url(#z)"><path d="M930.711,361.555,932.5,334.1c-7.546.218-14.226.754-16.178,1.867-.5.288-1.548,1.023-1.659,1.695-1.113,6.784.438,20.6,2.309,27.448.459,1.68.865,3.437,2.349,3.437h5.414c3.12,0,5.718-3.041,5.976-6.994" transform="translate(-914.289 -334.102)" fill="#fdcf3a"/></g></g><path d="M691.12,315.515l-2.063-27.664A98.86,98.86,0,0,1,689.4,272.4l70.811-1c-5.872-11.84-84.307-5.806-93.666-3.071-4.923,1.439-4.819,4.076-4.819,4.076a98.876,98.876,0,0,0-.341,15.449l2.063,27.664c.292,3.914,2.877,6.9,5.97,6.9H697.09c-3.092,0-5.678-2.99-5.97-6.9" transform="translate(-451.493 -196.765)" fill="#fdcf3a"/><g transform="translate(209.757 73.408)" opacity="0.75" style="mix-blend-mode:multiply;isolation:isolate"><g clip-path="url(#aa)"><path d="M691.12,326.9l-2.063-27.664c-.24-5.93.75-13.115,1.267-17.118-25.194-1.907-28.6,1.669-28.6,1.669a98.877,98.877,0,0,0-.341,15.449l2.063,27.664c.292,3.914,2.877,6.9,5.97,6.9H697.09c-3.092,0-5.678-2.99-5.97-6.9" transform="translate(-661.25 -281.555)" fill="#fdcf3a"/></g></g><g transform="translate(210.232 67.577)" opacity="0.5" style="mix-blend-mode:screen;isolation:isolate"><g clip-path="url(#ab)"><path d="M691.766,270.627l69.371.77c-5.872-11.84-84.307-5.806-93.666-3.071-4.923,1.439-4.819,4.075-4.819,4.075s2.566-3.176,29.114-1.774" transform="translate(-662.652 -264.342)" fill="#fdcf3a"/></g></g><path d="M814.646,276.482c-.141-1.088-1.47-2.279-2.113-2.744-3.5-2.538-18.962-3.226-32.619-3.226l-.879,0-.879,0c-4.283,0-8.744.068-12.957.239-9.22.375-17.257,1.245-19.661,2.987-.642.465-1.972,1.656-2.113,2.744a98.92,98.92,0,0,0-.341,15.449l2.063,27.664c.292,3.914,2.877,6.9,5.969,6.9h56.1c3.12,0,5.718-3.041,5.976-6.994l1.8-27.574a98.856,98.856,0,0,0-.341-15.449" transform="translate(-505.519 -200.845)" fill="#fdcf3a"/><g transform="translate(237.431 69.667)" opacity="0.5" style="mix-blend-mode:screen;isolation:isolate"><g clip-path="url(#ac)"><path d="M743.426,280.222c.141-1.088,1.47-2.279,2.113-2.744,2.4-1.742,10.441-2.612,19.661-2.987,4.214-.171,8.674-.239,12.958-.239l.879,0,.879,0c13.656,0,29.116.687,32.619,3.226.642.465,1.972,1.656,2.113,2.744a67.973,67.973,0,0,1,.461,7.426,82.482,82.482,0,0,0-.461-11.167c-.141-1.088-1.47-2.279-2.113-2.744-3.5-2.538-18.963-3.226-32.619-3.226l-.879,0-.879,0c-4.283,0-8.744.068-12.958.239-9.22.375-17.257,1.245-19.661,2.987-.643.465-1.972,1.656-2.113,2.744a82.422,82.422,0,0,0-.461,11.167,67.76,67.76,0,0,1,.461-7.426" transform="translate(-742.95 -270.512)" fill="#fdcf3a"/></g></g><g transform="translate(241.813 76.06)" opacity="0.5" style="mix-blend-mode:screen;isolation:isolate"><g clip-path="url(#ad)"><path d="M766.724,289.384c-8.3.621-12.693,3.7-10.085,22.408,1.451,10.412,2.265,15.7,2.7,18.346a2.857,2.857,0,0,0,2.7,2.533H780.79a2.94,2.94,0,0,0,2.745-3.1v-37.08a2.94,2.94,0,0,0-2.745-3.1Z" transform="translate(-755.888 -289.384)" fill="#fdcf3a"/></g></g><path d="M826.78,371.072c.128-.731.256-1.495.38-2.282H777.115c.124.787.252,1.551.38,2.282Z" transform="translate(-528.112 -265.834)" fill="#4f4635"/><path d="M772.788,332.311c.016.8.052.976.105,1.861,5.07-.242,15.078-.4,26.383-.4s21.292.16,26.376.4c.052-.884.087-1.06.1-1.862-4.956-.426-15.191-.717-26.477-.717s-21.538.291-26.488.718" transform="translate(-525.251 -241.236)" fill="#4f4635"/><path d="M800.288,350.224c-11.043,0-20.829.052-25.97.13.073.672.151,1.349.234,2.024h51.47c.083-.675.161-1.351.233-2.024-5.144-.079-14.93-.13-25.967-.13" transform="translate(-526.262 -253.556)" fill="#4f4635"/><path d="M781.4,388.2c.346,1.374.645,2.2.84,2.2H827.7c.2,0,.495-.823.841-2.2Z" transform="translate(-530.944 -278.671)" fill="#4f4635"/><path d="M799.976,315.353c11.063,0,20.9.379,26.113.958-.038-.151-.079-.295-.124-.425a1.737,1.737,0,0,0-.716-.78,1.594,1.594,0,0,0-.151-.086l0,0h0c-2.117-1.058-12.558-1.862-25.119-1.862s-23.01.8-25.121,1.863h0a1.331,1.331,0,0,0-.852.839c-.015.029-.029.06-.044.091l-.013.029c-.035.1-.066.217-.1.334,5.211-.579,15.053-.959,26.129-.959" transform="translate(-525.951 -229.044)" fill="#4f4635"/><path d="M638.814,336.814c0-2.4.134-3.969-3-4.1-8.777-.375-31.16-.148-34.6,2.242-.477.332-1.548,1.023-1.658,1.695-1.114,6.784.438,20.595,2.309,27.448.459,1.68.865,3.438,2.348,3.438h16.43a4.3,4.3,0,0,0,4.3-4.3Z" transform="translate(-410.448 -241.88)" fill="#fdcf3a"/><g transform="translate(188.733 94.552)" opacity="0.75" style="mix-blend-mode:multiply;isolation:isolate"><g clip-path="url(#u)"><path d="M599.555,344.194c-1.114,6.784.438,20.595,2.309,27.448.459,1.68.865,3.437,2.349,3.437h16.429c-6.148,2-5.84-30.447-5.84-30.447s-15.136-1.111-15.247-.439" transform="translate(-599.181 -343.978)" fill="#fdcf3a"/></g></g><g transform="translate(189.172 90.687)" opacity="0.5" style="mix-blend-mode:screen;isolation:isolate"><g clip-path="url(#af)"><path d="M636.669,332.711c-8.776-.375-31.16-.148-34.6,2.242a4.776,4.776,0,0,0-1.593,1.485c5.085.011,15.977.7,15.977.7l23.217-.322c0-2.4.134-3.969-3-4.1" transform="translate(-600.479 -332.567)" fill="#fdcf3a"/></g></g><path d="M670.146,338.18a4.294,4.294,0,0,0-4.364-4.3c-8.783.153-17.137.673-19.36,1.94-.5.287-1.548,1.023-1.658,1.694-1.113,6.784.438,20.6,2.309,27.448.458,1.68.865,3.437,2.348,3.437h16.43a4.3,4.3,0,0,0,4.3-4.3Z" transform="translate(-440.344 -242.751)" fill="#fdcf3a"/><path d="M671.264,367.7a29.036,29.036,0,0,1-6.144-.465c-.906-.093-1-1.264-1.117-2.731-.1-1.274-.158-2.963-.158-4.755,0-1.314.036-5.5.474-6.771.17-.813,1.332-.914,2.556-1.021,1.177-.1,2.736-.159,4.39-.159s3.213.056,4.39.159c1.224.107,2.386.208,2.556,1.021.438,1.27.474,5.457.474,6.771,0,1.792-.057,3.481-.158,4.755-.118,1.466-.211,2.637-1.117,2.731a29.035,29.035,0,0,1-6.144.465" transform="translate(-453.209 -254.6)" fill="#4f4635"/><path d="M679.054,354.886h0c0-.293-2.732-.531-6.1-.531s-6.1.238-6.1.531h0a28.6,28.6,0,0,0-.453,6.554c0,3.66.238,6.627.531,6.627h.057c.4.259,2.918.459,5.966.459s5.566-.2,5.966-.459h.057c.293,0,.531-2.967.531-6.627a28.614,28.614,0,0,0-.453-6.554" transform="translate(-454.897 -256.288)" fill="#4b9497"/><g transform="translate(212.777 99.369)" style="mix-blend-mode:screen;isolation:isolate"><g clip-path="url(#w)"><path d="M673.591,358.2c-1.473.042-2.566.129-3.172.213a61.783,61.783,0,0,0,0,11.13,29.839,29.839,0,0,0,3.174.223Z" transform="translate(-670.166 -358.199)" fill="#4b9497"/></g></g><g transform="translate(216.882 99.343)" style="mix-blend-mode:screen;isolation:isolate"><g clip-path="url(#x)"><path d="M682.286,358.133v11.6q.557.01,1.173.01V358.123q-.616,0-1.173.01" transform="translate(-682.286 -358.123)" fill="#4b9497"/></g></g><path d="M671.264,412.274c-.526,0-5,0-6.035-.149-1.144-.01-1.385-1.641-1.385-3.01a4.437,4.437,0,0,1,.609-2.639.79.79,0,0,1,.2-.18q.034-.024.068-.045l0,0a2.164,2.164,0,0,1,.864-.191c.318-.021.77-.04,1.341-.056,1.161-.033,2.7-.051,4.339-.051s3.179.018,4.339.051c.571.016,1.023.035,1.341.056a2.154,2.154,0,0,1,.865.191l0,0q.035.021.068.045a.777.777,0,0,1,.2.18,4.438,4.438,0,0,1,.61,2.639c0,1.369-.24,3-1.385,3.01-1.036.144-5.509.149-6.035.149" transform="translate(-453.209 -290.411)" fill="#4f4635"/><path d="M679.054,408.683h0a108.284,108.284,0,0,0-12.2,0,3.332,3.332,0,0,0-.453,2.121c0,1.185.238,2.145.531,2.145h.057c.4.084,2.918.148,5.966.148s5.566-.065,5.966-.148h.057c.293,0,.531-.96.531-2.145a3.333,3.333,0,0,0-.453-2.121" transform="translate(-454.897 -292.1)" fill="#f15a24"/><g transform="translate(212.777 116.824)" style="mix-blend-mode:screen;isolation:isolate"><g clip-path="url(#y)"><path d="M673.591,409.755c-1.473.014-2.566.042-3.172.069a6.584,6.584,0,0,0,0,3.6c.576.028,1.674.058,3.174.072Z" transform="translate(-670.166 -409.747)" fill="#f15a24"/><path d="M682.286,409.734v3.754q.557,0,1.173,0v-3.76q-.616,0-1.173,0" transform="translate(-678.181 -409.731)" fill="#f15a24"/></g></g><path d="M191.188,293.962l-2.244-.055c-2.09-.053-2.485.428-2.485,1.364,0,.877.717,1.179,1.407,1.328h0c.232.062.738.185.738.185h0a18.345,18.345,0,0,0,2.643.334c10.223.829,44.116,1.5,94.973,1.747v-3.825c-42.4-.163-73.281-.556-95.03-1.077" transform="translate(-137.524 -216.312)" fill="#352f24"/><path d="M189.165,341.6c-2.09-.053-2.372.428-2.372,1.364s.6,1.179,1.294,1.328h0c.232.062.737.185.737.185h0a22.549,22.549,0,0,0,3.238.379c10.978.808,44.457,1.457,94.377,1.7V342.73c-42.084-.162-72.779-.55-94.539-1.065l-2.734-.067" transform="translate(-137.745 -247.85)" fill="#352f24"/><g transform="translate(149.859 124.508)" opacity="0.5" style="mix-blend-mode:multiply;isolation:isolate"><g clip-path="url(#aj)"><path d="M484.416,439.929a3.18,3.18,0,0,0,2.875,3.409h31.514a3.18,3.18,0,0,0,2.875-3.409v-7.513H484.416Z" transform="translate(-484.416 -432.416)" fill="#304047"/></g></g><g transform="translate(157.692 113.145)" opacity="0.5" style="mix-blend-mode:multiply;isolation:isolate"><g clip-path="url(#ak)"><path d="M536.974,410.233H507.542v-9.415a1.947,1.947,0,0,1,1.947-1.948h27.484Z" transform="translate(-507.542 -398.871)" fill="#304047"/></g></g><g transform="translate(167.422 26.981)" opacity="0.5"><g clip-path="url(#al)"><path d="M558.181,147.347c-1.849-.178-4.134-.284-6.609-.284-6.149,0-11.133.65-11.133,1.451h0c-.467,1.294-.826,8.815-.826,17.9,0,10,.434,18.1.969,18.1h.1c.731.708,5.324,1.253,10.886,1.253,2.482,0,4.77-.109,6.609-.292Z" transform="translate(-538.478 -146.191)" fill="#4b9497"/><g transform="translate(3.463 4.429)" style="mix-blend-mode:screen;isolation:isolate"><g clip-path="url(#j)"><path d="M552.737,157.564a39.494,39.494,0,0,0-5.788.582c-.223,2.438-.459,7.781-.459,15.215,0,7.4.234,12.735.457,15.187a36.824,36.824,0,0,0,5.791.608Z" transform="translate(-546.489 -157.564)" fill="#4b9497"/></g></g><g transform="translate(10.953 4.359)" style="mix-blend-mode:screen;isolation:isolate"><g clip-path="url(#k)"><path d="M568.6,157.385v31.678c.678.018,1.39.028,2.14.028V157.357c-.749,0-1.461.01-2.14.028" transform="translate(-568.601 -157.357)" fill="#4b9497"/></g></g><path d="M555.967,182.929c-1.765.16-4,.269-6.609.269-6.372,0-10.5-.647-11.034-1.113l-.12-.111c-.313-1.408-.7-7.387-.721-16.386h18.485v-1.743H537.482c.024-9.734.457-15.518.766-16.55.786-.462,4.9-1.061,11.11-1.061,2.6,0,4.835.105,6.609.261v-1.748c-1.933-.166-4.216-.256-6.609-.256a70.379,70.379,0,0,0-8.271.428c-3.109.388-3.846.844-3.946,1.664-.6,2.082-.875,10.5-.875,18.133,0,4.858.106,9.428.3,12.869.289,5.163.619,6.073,1.285,6.1,1.58.986,7.888,1.254,11.509,1.254,1.835,0,4.359-.069,6.609-.266Z" transform="translate(-536.265 -144.489)" fill="#1c1913"/></g></g><g transform="translate(149.859 26.996)" opacity="0.5"><g clip-path="url(#ao)"><path d="M493.94,148.544c0-.73-4.138-1.334-9.525-1.436v38.678c4.818-.093,8.618-.6,9.277-1.238h.1c.536,0,.969-8.1.969-18.1,0-9.087-.359-16.609-.826-17.9h0" transform="translate(-484.416 -146.236)" fill="#4b9497"/><path d="M491.078,144.947a65.109,65.109,0,0,0-6.662-.413v1.742c5.31.092,8.785.626,9.5,1.047.308,1.032.741,6.816.766,16.55H484.416v1.743h10.267c-.023,9.014-.41,15-.723,16.393l-.118.1c-.486.426-3.973,1-9.426,1.1v1.742c3.642-.07,8.535-.386,9.9-1.238.667-.03,1-.939,1.285-6.1.192-3.441.3-8.011.3-12.869,0-7.632-.271-16.05-.875-18.132-.1-.821-.837-1.277-3.947-1.665" transform="translate(-484.416 -144.534)" fill="#1c1913"/></g></g><path d="M578,129.635h-6.54V243.091H578c.685,0,1.242-1.429,1.242-3.187V132.822c0-1.757-.558-3.187-1.242-3.187" transform="translate(-392.114 -107.686)" fill="#fdcf3a"/><path d="M575.255,243.126V134.606a1.152,1.152,0,0,1,1.15-1.155h3.737a4.81,4.81,0,0,1,.321,1.894V242.428a4.812,4.812,0,0,1-.321,1.894h-3.695a1.2,1.2,0,0,1-1.192-1.2" transform="translate(-394.626 -110.209)" fill="#4b9497"/><path d="M568.165,157.96h4.213a2.348,2.348,0,0,1,2.29,2.4v18.065a2.348,2.348,0,0,1-2.29,2.4h-1.11a5.728,5.728,0,0,0,1.132,3.755c.971,1.023,2.827,1.5,5.84,1.5a1.01,1.01,0,0,1,0,2.018c-3.607,0-5.828-.646-7.2-2.094-1.235-1.3-1.594-3.048-1.694-5.179h-1.178a2.348,2.348,0,0,1-2.29-2.4V160.362a2.348,2.348,0,0,1,2.29-2.4" transform="translate(-388.424 -126.417)" fill="#1c1913"/><path d="M106.386,409.216a1.448,1.448,0,0,0-1.976.537c-3.805,6.641-7.907,14.914-9.619,18.423a2.255,2.255,0,1,0,2.724,1.022c1.762-3.607,5.73-11.588,9.408-18.005a1.448,1.448,0,0,0-.537-1.976" transform="translate(-75.919 -292.439)" fill="#ffe7bf"/><path d="M156.1,405.849l.709,17.971c4.485,0,9.209,0,9.209-8.985,0-4.962-5.433-8.985-9.919-8.985" transform="translate(-117.45 -290.34)" fill="#9d4117"/><path d="M138.984,395.592a1.448,1.448,0,0,1-1.448-1.448v-5.808a1.448,1.448,0,1,1,2.9,0v5.808a1.448,1.448,0,0,1-1.448,1.448" transform="translate(-105.172 -277.802)" fill="#ffe7bf"/><path d="M105.782,494.288a2.287,2.287,0,0,1-.39-.034,2.252,2.252,0,0,1-1.832-2.606c.344-1.973,3.471-19.44,7.163-24.974a2.252,2.252,0,1,1,3.747,2.5c-2.682,4.019-5.581,18.144-6.473,23.247a2.253,2.253,0,0,1-2.216,1.866" transform="translate(-82.683 -329.9)" fill="#ffe7bf"/><path d="M129.736,427.624a7.24,7.24,0,0,1-7.24-7.24v-11.4a7.24,7.24,0,1,1,14.48,0v11.4a7.24,7.24,0,0,1-7.24,7.24" transform="translate(-95.227 -287.628)" fill="#ffe7bf"/><path d="M154.567,489.479a2.268,2.268,0,0,1-.459-.047c-4.281-.886-7.382-2.906-9.218-6-2.339-3.947-2.47-9.391-.392-16.179a2.253,2.253,0,0,1,4.308,1.319c-1.669,5.447-1.682,9.792-.04,12.564,1.179,1.99,3.224,3.262,6.254,3.889a2.253,2.253,0,0,1-.454,4.459" transform="translate(-108.807 -329.889)" fill="#ffe7bf"/><path d="M141.81,370.137a6.832,6.832,0,0,0,7.811,3.647c-1.716-.858-1.448-3.325-1.448-3.325a3.5,3.5,0,0,0,1.448,1.234,7.043,7.043,0,0,1-.195-1.3,9.5,9.5,0,0,1,.824-4.421l1.025-2.325-5.247-.774Z" transform="translate(-107.999 -261.922)" fill="#cc5a38"/><path d="M115.105,341.487a9.046,9.046,0,1,1,18.091,0c0,5-4.05,11.571-9.046,11.571s-9.046-6.575-9.046-11.571" transform="translate(-90.339 -241.797)" fill="#ffe7bf"/><path d="M129.319,332.386c-1.608-1.306-3.868-2-7.436-.946-5.677-1.387-12.408,2.394-9.512,11.726,2.253-2.413,2.735-4.559,6.114-6.275.214,3.218,11.906,4.451,12.863,9.117,2.9-6.436.545-11.531-2.03-13.622" transform="translate(-88.072 -240.796)" fill="#cc5a38"/><path d="M127.583,365.95a.84.84,0,0,0-.84.84v1.537a.841.841,0,0,0,1.681,0V366.79a.841.841,0,0,0-.841-.84" transform="translate(-98.035 -263.956)" fill="#352f24"/><path d="M144.05,365.95a.84.84,0,0,0-.84.84v1.537a.84.84,0,1,0,1.681,0V366.79a.84.84,0,0,0-.84-.84" transform="translate(-108.925 -263.956)" fill="#352f24"/><path d="M136.383,376.367c0,.681-.552.164-1.234.164s-1.233.518-1.233-.164a1.233,1.233,0,1,1,2.467,0" transform="translate(-102.779 -270.028)" fill="#f2ba5d"/><path d="M138.54,383.679a1.644,1.644,0,0,0,1.276.085,2.326,2.326,0,0,0,.639-.292,1.4,1.4,0,0,0,.468-.483l0-.009a.164.164,0,0,1,.3.138,1.747,1.747,0,0,1-.525.679,2.774,2.774,0,0,1-.723.425,2.614,2.614,0,0,1-.835.19,1.881,1.881,0,0,1-.9-.163l-.009,0a.322.322,0,1,1,.273-.584l.033.017" transform="translate(-105.511 -275.16)" fill="#352f24"/><path d="M132.332,410.937l.173-.051a.44.44,0,0,0,.273-.609c-.461-.981-1.254-2.755-1.647-3.426a11.269,11.269,0,0,0-3.447-2.8c-1.026-.557-2.49.731-3.739.731-2.383,0-4.478-1.234-6.114.86-1.577,1.58-2.756,4.34-3.611,6.064a.439.439,0,0,0,.246.609l2.386.856-.4,7.912a.7.7,0,0,0,.694.731h13.983a1.224,1.224,0,0,0,1.219-1.329l-.805-9.313Z" transform="translate(-89.724 -289.061)" fill="#a7ad18"/><path d="M116.062,456.765a59.136,59.136,0,0,0-3.278,10.012.7.7,0,0,0,.491.825l6.431,1.826a.7.7,0,0,0,.848-.434l1.009-2.79a.421.421,0,0,1,.818.143v2.462a.7.7,0,0,0,.79.693l5.76-.749a.7.7,0,0,0,.607-.666c.063-1.7,2.254-7.068,1-11.322Z" transform="translate(-88.793 -324.01)" fill="#01202e"/><path d="M150.822,421.17c-5.018-2.89-6.789-8.159-5.552-11.384.914-2.383,2.795-4.134,4.813-3.7l1.185,1.5c-1.986-.424-3.635,1.433-4.195,2.893-.957,2.494.709,6.714,4.713,9.02Z" transform="translate(-110.036 -290.451)" fill="#9d4117"/><path d="M149.27,424.251l-2.794.833c1.915,4.355,1.547,6.707.878,7.479a1.341,1.341,0,0,1-1.58.243c-1.233-.5-2.408-2.133-2.452-4.7a2.251,2.251,0,1,0-2.885.348c.161,3.947,2.307,6.243,4.245,7.032a4.772,4.772,0,0,0,1.8.365,3.99,3.99,0,0,0,3.061-1.394c.9-1.041,2.395-3.93-.273-10.209" transform="translate(-106.42 -302.509)" fill="#ffe7bf"/><path d="M96.781,540.208a6.182,6.182,0,0,0-4.527-1.791c-2.629,0-4.831,1.4-5.4,3.275a.737.737,0,0,0,.7.953h8.172a1.446,1.446,0,0,0,1.05-2.437" transform="translate(-71.638 -378.004)" fill="#9d4117"/><path d="M169.928,523.358a6.182,6.182,0,0,0-4.025,2.737c-1.478,2.175-1.558,4.782-.325,6.3a.737.737,0,0,0,1.183-.045l4.593-6.759a1.446,1.446,0,0,0-1.426-2.239" transform="translate(-123.147 -368.034)" fill="#9d4117"/><path d="M336.265,355.152c-.724-3.459,2.386-9.742.8-16.222l-6.847-1.7c-.032-.869-.057-1.382-.057-1.382l-1.969.682-1.737-.6s-.021.451-.05,1.219l-7.579,2.622c-2.648,6.777,2.252,11.846,1.529,15.305-.3,1.434-.973,1.956-1.676,2.029a.822.822,0,0,0-.455,1.4c3.366,3.4,7.766,1.221,10.026-.3,2.227,1.522,6.741,3.845,10.171.349a.817.817,0,0,0-.479-1.377c-.7-.072-1.378-.593-1.678-2.029" transform="translate(-224.496 -244.048)" fill="#0f1416"/><path d="M383.187,395.8a.568.568,0,0,0,.059-.108c-.019.038-.04.071-.059.108" transform="translate(-267.616 -283.625)" fill="#0f1416"/><path d="M313.656,395.565c-.019-.037-.04-.07-.059-.108a.544.544,0,0,0,.059.108" transform="translate(-221.598 -283.468)" fill="#0f1416"/><path d="M320.578,336.161a9.046,9.046,0,1,1,18.091,0c0,5-4.05,11.571-9.046,11.571s-9.046-6.575-9.046-11.571" transform="translate(-226.214 -238.275)" fill="#ffd795"/><path d="M337.9,390.266c-.8,0-4.807-1.838-4.807-2.638l2.481-.878a1.318,1.318,0,0,0,.878-1.242v-2.436a1.49,1.49,0,0,1,1.306-1.5,1.448,1.448,0,0,1,1.59,1.441v2.443a1.318,1.318,0,0,0,.946,1.264l1.728.508c0,.8-3.323,3.04-4.122,3.04" transform="translate(-234.489 -274.28)" fill="#ffd795"/><path d="M313.814,493.612a2.254,2.254,0,0,1-2.221-2.64c.344-1.973,3.471-19.44,7.163-24.973a2.252,2.252,0,0,1,3.748,2.5c-2.684,4.022-5.582,18.145-6.473,23.248a2.253,2.253,0,0,1-2.216,1.866" transform="translate(-220.25 -329.453)" fill="#ffd795"/><path d="M361.024,483.45a2.246,2.246,0,0,1-1.728-.807c-.4-.481-9.84-11.949-7.308-25.957a2.253,2.253,0,1,1,4.433.8c-2.161,11.955,6.243,22.162,6.328,22.264a2.252,2.252,0,0,1-1.726,3.7" transform="translate(-246.7 -322.733)" fill="#ffd795"/><path d="M294.573,405.133a1.449,1.449,0,0,0-1.768,1.033c-.991,3.768-2.752,6.3-5.235,7.532a11.057,11.057,0,0,1-7.753.331,2.184,2.184,0,1,0-.341,2.914,16,16,0,0,0,4.038.539,11.977,11.977,0,0,0,5.315-1.175c3.281-1.614,5.561-4.778,6.777-9.4a1.448,1.448,0,0,0-1.032-1.768" transform="translate(-196.642 -289.835)" fill="#ffd795"/><path d="M333.5,403.753a3.008,3.008,0,0,0,.187-1.151c0-2.228-4.444-6.27-6.858-6.6-.776-.312-1.828,3.048-2.7,3.048-.85,0-1.45-3.368-2.208-3.072h0c-2.323,0-7.157,4.3-7.157,6.622,0,1.862.938,2.012,2.3,2.67,0,0-3.1,18.675-4.471,20.123,10.3,4.87,20.424,2.373,23.6.684-2.225-2.9-3.815-14.577-4.359-19.108-.135-1.125-.206-1.811-.206-1.811.888-.411,1.565-.651,1.875-1.407" transform="translate(-220.929 -283.802)" fill="#de3a00"/><path d="M376.732,441.188h-.109a1.768,1.768,0,0,0-1.586-.988H364.2a1.77,1.77,0,0,0-1.77,1.77l.075,7.194a1.77,1.77,0,0,0,1.77,1.77h1.313a1.766,1.766,0,0,0,.308.028h10.833a1.77,1.77,0,0,0,1.77-1.77v-6.235a1.77,1.77,0,0,0-1.77-1.77" transform="translate(-253.893 -313.056)" fill="#4b9497"/><path d="M367.155,442.444h10.828a1.76,1.76,0,0,0-1.046-.344H366.1a1.77,1.77,0,0,0-1.77,1.77v5.709a.526.526,0,0,0,1.051,0v-5.365a1.77,1.77,0,0,1,1.77-1.77" transform="translate(-255.149 -314.312)" fill="#fff"/><path d="M311.845,536.169a2.884,2.884,0,0,1-.494-.043,2.855,2.855,0,0,1-2.321-3.3c.079-.451.32-1.808.692-3.663a.669.669,0,0,1,.737-.531c1.578.2,2.743.473,4.315.623a.667.667,0,0,1,.594.8c-.276,1.358-.517,2.636-.713,3.758a2.848,2.848,0,0,1-2.81,2.365" transform="translate(-218.549 -371.527)" fill="#f2ef79"/><path d="M370.6,524.18a2.855,2.855,0,0,1-4.3-.809c-.225-.4-.9-1.6-1.783-3.274a.669.669,0,0,1,.234-.878c1.347-.846,2.423-1.37,3.735-2.249a.667.667,0,0,1,.963.24c.647,1.226,1.268,2.368,1.827,3.36a2.848,2.848,0,0,1-.679,3.609" transform="translate(-255.221 -363.746)" fill="#f2ef79"/><path d="M332.656,359.159a.841.841,0,0,0-.84.841v.893c0,.464.376-.23.84-.23s.84.694.84.23V360a.841.841,0,0,0-.84-.841" transform="translate(-233.646 -259.465)" fill="#352f24"/><path d="M351.119,359.159a.841.841,0,0,0-.84.841v.893c0,.464.376-.23.84-.23s.84.694.84.23V360a.84.84,0,0,0-.84-.841" transform="translate(-245.855 -259.465)" fill="#352f24"/><path d="M341.834,368.665c0,.681-.552.164-1.234.164s-1.233.518-1.233-.164a1.233,1.233,0,1,1,2.467,0" transform="translate(-238.639 -264.935)" fill="#f2ba5d"/><path d="M345.018,375.529a.339.339,0,0,1,.026.332,2.934,2.934,0,0,1-.679.978,2.856,2.856,0,0,1-.815.553,1.866,1.866,0,0,1-.871.172c-.293-.02-1.872-1.093-1.76-1.332a18.9,18.9,0,0,1,4.1-.7" transform="translate(-239.662 -270.285)" fill="#fff"/><path d="M317.636,335.572a12.234,12.234,0,0,0,6.013.267c1-2.9.652-3.8.652-3.8s.382,2.806.343,3.531a9.55,9.55,0,0,0,3.979,0,15.782,15.782,0,0,0-.244-3.531c.952.821,1.414,3.188,1.414,3.188s2.787-.077,4-.077a6.075,6.075,0,0,0-.244-3.111s1.218,2.119,1.035,2.882a10.324,10.324,0,0,0,2.976-.238s-1.62-11.312-9.878-9.355c-8.607-1.784-10.052,10.242-10.052,10.242" transform="translate(-224.269 -236.944)" fill="#0f1416"/><path d="M377.48,433.968c-1.167-2.709-3.908-8.979-6.824-15-.31.756-.987,1-1.875,1.407,0,0,.071.686.206,1.811,2.467,5.2,4.691,10.283,5.756,12.751a2.183,2.183,0,1,0,2.738-.965" transform="translate(-258.089 -299.013)" fill="#ffd795"/><path d="M306.815,541.359a5.512,5.512,0,0,0-4.036-1.6c-2.344,0-4.307,1.247-4.812,2.92a.657.657,0,0,0,.626.85h7.286a1.29,1.29,0,0,0,.936-2.173" transform="translate(-211.243 -378.894)" fill="#de3a00"/><path d="M371.443,529.088a5.513,5.513,0,0,0-4.283.709c-2.009,1.207-3.05,3.287-2.622,4.981a.657.657,0,0,0,.975.406l6.246-3.751a1.29,1.29,0,0,0-.316-2.345" transform="translate(-255.221 -371.722)" fill="#de3a00"/><path d="M546.027,286.136v15.637c3.9,0,8.014,0,8.014-7.818,0-4.318-4.111-7.819-8.014-7.819" transform="translate(-375.299 -211.176)" fill="#de3a00"/><path d="M527.085,275.879a1.448,1.448,0,0,1-1.448-1.448v-5.807a1.448,1.448,0,1,1,2.9,0v5.807a1.448,1.448,0,0,1-1.448,1.448" transform="translate(-361.815 -198.639)" fill="#f2ba5d"/><path d="M517.115,369.036a2.241,2.241,0,0,1-1.282-.4q-.821-.569-1.583-1.093c-8.908-6.142-13.379-9.224-7.037-19.715a2.252,2.252,0,1,1,3.855,2.33c-2.676,4.427-2.547,6.051-2.009,7.146.883,1.8,3.763,3.782,7.749,6.53q.766.528,1.592,1.1a2.253,2.253,0,0,1-1.285,4.1" transform="translate(-347.664 -251.251)" fill="#e3ab4f"/><path d="M514.207,307.145a8.045,8.045,0,0,1-8.045-8.045V287.7a8.045,8.045,0,1,1,16.089,0v11.4a8.045,8.045,0,0,1-8.045,8.045" transform="translate(-348.937 -206.894)" fill="#f2ba5d"/><path d="M515.452,382.137a2.28,2.28,0,0,1-.39-.034,2.252,2.252,0,0,1-1.832-2.606c.344-1.973,3.471-19.44,7.163-24.973a2.253,2.253,0,1,1,3.747,2.5c-2.684,4.022-5.582,18.145-6.473,23.247a2.253,2.253,0,0,1-2.216,1.866" transform="translate(-353.589 -255.737)" fill="#f2ba5d"/><path d="M491.228,287.371a1.449,1.449,0,0,0-1.95.627c-3.35,6.527-6.9,14.566-8.556,18.378a2.413,2.413,0,1,0,2.439,1.654c1.524-3.528,5.223-11.949,8.693-18.71a1.448,1.448,0,0,0-.627-1.95" transform="translate(-330.615 -211.888)" fill="#f2ba5d"/><path d="M557.9,232.133a2.413,2.413,0,1,0-4.159,1.663c-.765,4.7-3.957,13.26-9.605,17.109a1.448,1.448,0,0,0,1.631,2.393c6.665-4.541,9.987-14.078,10.825-19.021a2.412,2.412,0,0,0,1.309-2.144" transform="translate(-373.631 -173.87)" fill="#f2ba5d"/><path d="M503.193,340.966c-.643,2.234-1.438,4.37-1.905,5.567a.994.994,0,0,0,.631,1.311l5.15,1.637A1,1,0,0,0,508,349.3l.451-1.177a.64.64,0,0,1,1.04.376l.1.519a1,1,0,0,0,.98.816h5.3a1,1,0,0,0,.9-.571,28.276,28.276,0,0,0,2.155-9.584Z" transform="translate(-345.668 -246.58)" fill="#a7ad18"/><path d="M520.939,283.321l-3.014-3.3A27.754,27.754,0,0,1,513,281c-1.549-.045-2.4,1.886-4.062,1.886-1.809,0-3.7-2.389-5.047-1.381a7.146,7.146,0,0,0-.552.464v-.005l-.059.059c-.1.1-.2.2-.3.3a34.02,34.02,0,0,0-4.788,6.542l2.7,2.632-.676,7.894c-.194,4.393,4.278,2.132,8.721,2.132s8.9,1.963,8.9-2.48l-.853-11.1c0-.213-.009-.424-.023-.635a11.155,11.155,0,0,0,3.982-3.988" transform="translate(-343.666 -207.134)" fill="#d7eaff"/><path d="M544.216,281.707a1.338,1.338,0,0,0-1.948,1c-.6,4.679,3.525,11.791,4.652,13l1.178-1.1c-1.316-1.413-5.637-9.542-3.882-12.908" transform="translate(-372.774 -208.147)" fill="#de3a00"/><path d="M508.713,430.188a5.512,5.512,0,0,0-4.036-1.6c-2.344,0-4.307,1.248-4.812,2.92a.657.657,0,0,0,.626.85h7.286a1.29,1.29,0,0,0,.936-2.173" transform="translate(-344.754 -305.379)" fill="#de3a00"/><path d="M537.809,400.916a5.512,5.512,0,0,0-3.065,3.073c-.929,2.153-.562,4.449.774,5.575a.657.657,0,0,0,1.029-.238l2.887-6.689a1.29,1.29,0,0,0-1.625-1.721" transform="translate(-367.496 -287.027)" fill="#de3a00"/><path d="M545.159,231.158a3.11,3.11,0,1,0-2.848,0,2.249,2.249,0,0,0-.762,2.34,2.27,2.27,0,1,0,2.5,1.659,2.262,2.262,0,0,0,1.108-4" transform="translate(-369.727 -170.936)" fill="#f2ef79"/><path d="M504.944,246.948a3.11,3.11,0,1,0-3.035,2.433,2.494,2.494,0,1,0,3.035-2.433" transform="translate(-344.068 -182.757)" fill="#f2ef79"/><path d="M503.207,221.774a9.046,9.046,0,1,1,18.091,0c0,5-4.05,11.571-9.046,11.571s-9.046-6.575-9.046-11.571" transform="translate(-346.983 -162.633)" fill="#f2ba5d"/><path d="M517.044,212.989a2.12,2.12,0,0,0-.759-1.627,2.6,2.6,0,0,0-2.234-3.938c-.078,0-.155,0-.232.012a3.1,3.1,0,0,0-.372-.377c0-.047.007-.093.007-.141a3.106,3.106,0,0,0-4.976-2.485,8.52,8.52,0,0,1-6.227-.12,2.6,2.6,0,0,0-2.54,2.035,3.1,3.1,0,0,0-3.434,3.438,2.6,2.6,0,0,0-1.036,3.409,3.116,3.116,0,1,0,4.952,1.92,2.124,2.124,0,0,0,2.1-1.983A2.6,2.6,0,0,0,506,211.8a1.727,1.727,0,0,0,2.856-.635,3.122,3.122,0,0,0,1.2,1.057c0,.031-.009.061-.009.092a1.725,1.725,0,0,0,2.84,1.324,1.172,1.172,0,0,1-.1,1.478,2.748,2.748,0,0,0,4.252-2.126" transform="translate(-340.909 -156.233)" fill="#f2ef79"/><path d="M538.955,249.425a1.624,1.624,0,0,0-3.153,0,.313.313,0,0,0,.3.389h2.547a.314.314,0,0,0,.3-.389" transform="translate(-368.531 -186.084)" fill="#352f24"/><path d="M516.253,248.191a1.624,1.624,0,0,0-1.576,1.234.313.313,0,0,0,.3.389h2.547a.313.313,0,0,0,.3-.389,1.624,1.624,0,0,0-1.576-1.234" transform="translate(-354.561 -186.084)" fill="#352f24"/><g transform="translate(164.229 64.286)" style="mix-blend-mode:multiply;isolation:isolate"><g clip-path="url(#ap)"><path d="M529.308,255.859c0,.681-.552.164-1.234.164s-1.233.518-1.233-.164a1.233,1.233,0,1,1,2.467,0" transform="translate(-526.841 -254.625)" fill="#f2ba5d"/></g></g><path d="M527.556,263.249a1.644,1.644,0,0,0,1.276.085,2.336,2.336,0,0,0,.638-.292,1.4,1.4,0,0,0,.468-.483l0-.009a.164.164,0,0,1,.3.138,1.746,1.746,0,0,1-.525.679,2.758,2.758,0,0,1-.723.425,2.6,2.6,0,0,1-.835.191,1.885,1.885,0,0,1-.9-.163l-.009,0a.323.323,0,0,1,.273-.585l.033.018" transform="translate(-362.759 -195.522)" fill="#352f24"/></g></g></g></svg>