<svg xmlns="http://www.w3.org/2000/svg" width="40" height="32.52" viewBox="0 0 40 32.52"><g transform="translate(-11.201 -56.998)"><path d="M25.87,26.995a6.013,6.013,0,0,1,.1-1.027H15.807a5.12,5.12,0,0,1,.1,1.027A5.451,5.451,0,0,1,10.38,32.52a5.512,5.512,0,0,1-5.438-6.552H2.3A2.287,2.287,0,0,1,0,23.673V2.306A2.289,2.289,0,0,1,2.3,0H24.432V5.536h7.406L40,15.664v7.921a2.314,2.314,0,0,1-2.3,2.383h-.859a5.12,5.12,0,0,1,.1,1.027,5.536,5.536,0,0,1-11.073,0Zm1.635,0a3.914,3.914,0,1,0,3.911-3.918A3.967,3.967,0,0,0,27.505,26.995Zm-21.031,0a3.911,3.911,0,1,0,7.823,0,3.9,3.9,0,0,0-3.917-3.906A3.956,3.956,0,0,0,6.474,26.995Zm8.74-2.727v.012h7.609V1.71H2.3a.577.577,0,0,0-.594.6V23.673a.576.576,0,0,0,.594.6H5.563a5.546,5.546,0,0,1,9.651,0Zm21.026-.009h1.479a.726.726,0,0,0,.672-.674V16.26l-1.661-2.074H24.51V24.259H26.6a5.536,5.536,0,0,1,9.641,0Zm-.88-11.771-4.281-5.34H24.51v5.34Z" transform="translate(11.201 56.998)" fill="#9f9f9f"/></g></svg>